<svg xmlns="http://www.w3.org/2000/svg" width="346.48" height="55.76" viewBox="0 0 346.48 55.76">
  <path id="concept_ttl" d="M44.4-15.84c-4.72,4.64-9.04,5.52-12.24,5.52A16.2,16.2,0,0,1,20.64-14.8,16.054,16.054,0,0,1,16-26.56a17.091,17.091,0,0,1,5.04-12.32,14.97,14.97,0,0,1,10.88-4.16A16.91,16.91,0,0,1,44.4-37.36V-51.6a31.766,31.766,0,0,0-12.8-2.96,28.324,28.324,0,0,0-19.92,7.68A27.833,27.833,0,0,0,3.36-26.8,27.936,27.936,0,0,0,11.68-6.56C16.16-2.16,22.8,1.2,32.64,1.2A24.792,24.792,0,0,0,44.4-1.68ZM80.88-54.56c-10.64,0-17.28,4.24-20.88,7.84a29.791,29.791,0,0,0-8.24,20.24A27.248,27.248,0,0,0,60.08-6.64c4,3.84,10.8,7.84,20.8,7.84,8.96,0,15.68-3.04,20.64-7.84a27.588,27.588,0,0,0,8.32-20,27.762,27.762,0,0,0-8.32-20.16C96.16-52,89.2-54.56,80.88-54.56ZM80.8-43.2a17.115,17.115,0,0,1,11.76,4.56,16.819,16.819,0,0,1,4.64,12c0,6.16-2.56,9.92-4.64,11.92a16.156,16.156,0,0,1-11.84,4.56,15.694,15.694,0,0,1-11.44-4.4,15.92,15.92,0,0,1-4.88-12,16.346,16.346,0,0,1,4.72-12.08A16.376,16.376,0,0,1,80.8-43.2ZM131.36,0V-34.56L160.32,0h10.72V-53.36H158.72v34.4l-28.96-34.4H119.04V0Zm89.92-15.84c-4.72,4.64-9.04,5.52-12.24,5.52a16.2,16.2,0,0,1-11.52-4.48,16.054,16.054,0,0,1-4.64-11.76,17.091,17.091,0,0,1,5.04-12.32,14.97,14.97,0,0,1,10.88-4.16,16.91,16.91,0,0,1,12.48,5.68V-51.6a31.766,31.766,0,0,0-12.8-2.96,28.324,28.324,0,0,0-19.92,7.68,27.833,27.833,0,0,0-8.32,20.08,27.936,27.936,0,0,0,8.32,20.24c4.48,4.4,11.12,7.76,20.96,7.76a24.792,24.792,0,0,0,11.76-2.88Zm40-37.52H231.12V0h30.16V-10.4H243.44V-22.24H260.4v-10.4H243.44V-42.96h17.84Zm10,0V0H283.6V-18.72h7.52c3.76,0,9.36-.4,13.6-4.72,2-2.08,4.56-5.84,4.56-12.56,0-3.68-.64-8.96-5.2-12.96-4.24-3.76-9.36-4.4-14-4.4ZM283.6-43.28h4.16c2.4,0,5.04.24,6.88,2a7.04,7.04,0,0,1,2,5.2,7.431,7.431,0,0,1-2,5.28c-2,1.92-4.96,2-6.64,2h-4.4Zm66.24.32v-10.4H314.32v10.4h11.6V0h12.32V-42.96Z" transform="translate(-3.36 54.56)" fill="#fff"/>
</svg>
