<svg xmlns="http://www.w3.org/2000/svg" width="317.68" height="55.76" viewBox="0 0 317.68 55.76">
  <path id="history_ttl" d="M18.16-53.36H5.84V0H18.16V-22.64H39.44V0H51.76V-53.36H39.44v20.32H18.16Zm45.52,0V0H76V-53.36Zm57.28,4.08a25.791,25.791,0,0,0-15.84-5.28c-4.96,0-9.44,1.04-13.2,4.88a16.4,16.4,0,0,0-4.64,12c0,2.56.4,6.32,3.2,9.28,2.08,2.24,4.96,3.36,7.44,4.24l4.4,1.52c1.52.56,4.8,1.76,6.24,2.96a4.705,4.705,0,0,1,1.84,3.84,5.521,5.521,0,0,1-1.92,4.32,8.52,8.52,0,0,1-5.6,1.84,12.4,12.4,0,0,1-6.72-1.92,32.671,32.671,0,0,1-4.96-4.08l-6.4,8.8a33.939,33.939,0,0,0,7.84,5.84A22.61,22.61,0,0,0,103.2,1.2c3.52,0,10.4-.48,15.12-5.44,2.8-2.88,4.72-7.68,4.72-13.2a13.308,13.308,0,0,0-3.92-9.92,21.4,21.4,0,0,0-7.28-4.08l-4-1.52c-3.6-1.36-5.44-1.84-6.72-3.04a3.743,3.743,0,0,1-1.2-2.96,4.772,4.772,0,0,1,1.36-3.36,6.673,6.673,0,0,1,5.2-1.84c1.52,0,4.96.24,8.96,3.84Zm41.28,6.32v-10.4H126.72v10.4h11.6V0h12.32V-42.96Zm31.52-11.6c-10.64,0-17.28,4.24-20.88,7.84a29.791,29.791,0,0,0-8.24,20.24,27.248,27.248,0,0,0,8.32,19.84c4,3.84,10.8,7.84,20.8,7.84,8.96,0,15.68-3.04,20.64-7.84a27.588,27.588,0,0,0,8.32-20A27.762,27.762,0,0,0,214.4-46.8C209.04-52,202.08-54.56,193.76-54.56Zm-.08,11.36a17.115,17.115,0,0,1,11.76,4.56,16.819,16.819,0,0,1,4.64,12c0,6.16-2.56,9.92-4.64,11.92a16.156,16.156,0,0,1-11.84,4.56,15.694,15.694,0,0,1-11.44-4.4,15.92,15.92,0,0,1-4.88-12A16.346,16.346,0,0,1,182-38.64,16.376,16.376,0,0,1,193.68-43.2Zm38.24-10.16V0h12.32V-21.04L258.64,0h15.04l-16.4-21.84a16.79,16.79,0,0,0,7.44-4.08,14.6,14.6,0,0,0,4.16-10.88,16.087,16.087,0,0,0-4.64-11.92c-2.56-2.4-6.8-4.64-13.6-4.64Zm12.32,9.6h2.88c1.6,0,4.8.16,6.8,1.68a6.474,6.474,0,0,1,2.48,5.44,7.183,7.183,0,0,1-2,5.2c-2.08,2.08-5.12,2.32-7.36,2.32h-2.8ZM292.08,0H304.4V-24.88l19.12-28.48H308.96L298.24-36.8,287.52-53.36H272.96l19.12,28.48Z" transform="translate(-5.84 54.56)" fill="#0075a5"/>
</svg>
