<svg xmlns="http://www.w3.org/2000/svg" width="115.44" height="27.28" viewBox="0 0 115.44 27.28">
  <path id="value_txt" d="M.16-26.68,11.48,0h4.16L26.96-26.68H20.32L13.56-9.6,6.8-26.68ZM44.8,0h6.4L40.68-26.68H35.04L24.28,0h6.4l2.04-5.04H42.8ZM34.52-9.76l3.32-8.96,3.28,8.96ZM54.2-26.68V0H68.64V-5.2H60.36V-26.68Zm40.48,0H88.52v15.64a6.294,6.294,0,0,1-1.4,4.48,4.92,4.92,0,0,1-3.72,1.4,4.92,4.92,0,0,1-3.72-1.4,6.294,6.294,0,0,1-1.4-4.48V-26.68H72.12v15.8c0,2.56.32,5.72,2.96,8.44C77.64.2,80.6.6,83.4.6s5.76-.4,8.32-3.04c2.64-2.72,2.96-5.88,2.96-8.44Zm20.92,0H100.52V0H115.6V-5.2h-8.92v-5.92h8.48v-5.2h-8.48v-5.16h8.92Z" transform="translate(-0.16 26.68)" fill="#fff"/>
</svg>
