<svg xmlns="http://www.w3.org/2000/svg" width="134.76" height="27.88" viewBox="0 0 134.76 27.88">
  <path id="vision_txt" d="M.16-26.68,11.48,0h4.16L26.96-26.68H20.32L13.56-9.6,6.8-26.68Zm30,0V0h6.16V-26.68ZM58.8-24.64a12.9,12.9,0,0,0-7.92-2.64,8.591,8.591,0,0,0-6.6,2.44,8.2,8.2,0,0,0-2.32,6,6.56,6.56,0,0,0,1.6,4.64,8.981,8.981,0,0,0,3.72,2.12l2.2.76A13.03,13.03,0,0,1,52.6-9.84a2.353,2.353,0,0,1,.92,1.92,2.761,2.761,0,0,1-.96,2.16,4.26,4.26,0,0,1-2.8.92A6.2,6.2,0,0,1,46.4-5.8a16.336,16.336,0,0,1-2.48-2.04l-3.2,4.4A16.969,16.969,0,0,0,44.64-.52,11.305,11.305,0,0,0,49.92.6c1.76,0,5.2-.24,7.56-2.72a9.562,9.562,0,0,0,2.36-6.6,6.654,6.654,0,0,0-1.96-4.96,10.7,10.7,0,0,0-3.64-2.04l-2-.76c-1.8-.68-2.72-.92-3.36-1.52a1.871,1.871,0,0,1-.6-1.48,2.386,2.386,0,0,1,.68-1.68,3.336,3.336,0,0,1,2.6-.92,6.5,6.5,0,0,1,4.48,1.92Zm5.6-2.04V0h6.16V-26.68Zm25.44-.6A14.312,14.312,0,0,0,79.4-23.36a14.9,14.9,0,0,0-4.12,10.12,13.624,13.624,0,0,0,4.16,9.92A14.683,14.683,0,0,0,89.84.6a14.246,14.246,0,0,0,10.32-3.92,13.794,13.794,0,0,0,4.16-10,13.881,13.881,0,0,0-4.16-10.08A14.255,14.255,0,0,0,89.84-27.28ZM89.8-21.6a8.557,8.557,0,0,1,5.88,2.28,8.409,8.409,0,0,1,2.32,6,7.99,7.99,0,0,1-2.32,5.96,8.078,8.078,0,0,1-5.92,2.28,7.847,7.847,0,0,1-5.72-2.2,7.96,7.96,0,0,1-2.44-6,8.173,8.173,0,0,1,2.36-6.04A8.188,8.188,0,0,1,89.8-21.6ZM115.08,0V-17.28L129.56,0h5.36V-26.68h-6.16v17.2l-14.48-17.2h-5.36V0Z" transform="translate(-0.16 27.28)" fill="#fff"/>
</svg>
