<svg xmlns="http://www.w3.org/2000/svg" width="705.255" height="53.96" viewBox="0 0 705.255 53.96"><path data-name="パス 26" d="M266.004 5.421a43.444 43.444 0 01-6.233.514 44.982 44.982 0 01-5.563-.29l.179 3.731c1.9.045 5.652-.156 7.037-.268-.648.536-.849.693-1.675 1.452.693.514 1.541 1.229 2.346 1.921a15.641 15.641 0 015.63-3.641zm-10.165 8.645c-.916.827-3.239 2.9-3.239 5.228 0 2.256 2.122 3.306 2.837 3.6 1.095.447 2.48.827 5.965.827a33.963 33.963 0 008.735-1.031 16.931 16.931 0 01-.581-3.8 31.191 31.191 0 01-8.958 1.34c-.938 0-4 0-4-1.608 0-.737 1.117-1.9 1.743-2.435zm13.315-9.092a18.8 18.8 0 011.944 2.189 8.921 8.921 0 011.43-1.519 23.913 23.913 0 00-2.1-2.189zm-1.877 1.854a24.7 24.7 0 012.145 2.48A9.05 9.05 0 01270.74 7.7a15.977 15.977 0 00-2.033-2.346zm14.744.536h-6.881v2.994h6.881v2.7h-8.422v2.927h7.931c-1.541 4.289-5.339 5.295-8.31 6.1a6.786 6.786 0 011.921 2.77 12.919 12.919 0 008.713-6.389 14.775 14.775 0 008.266 6.389 5.364 5.364 0 012.145-2.77c-1.675-.357-6.5-2.368-8.31-6.1h7.841v-2.924h-8.445v-2.7h6.9V7.367h-6.9V4.82c.246-.112.469-.223.469-.424 0-.246-.268-.268-.469-.268l-3.329-.089zm29.176 13.9a9.521 9.521 0 01.58 2.252c3.552 0 3.552-1.251 3.552-2.323v-3.418h.961V13.08h-12.755v4.691h1.072v5.343h2.77v-4.2h.916v5.719h2.9zm0-5.9h2.033v.938h-2.033zm0 3.552h1.05c0 1.631 0 1.9-1.05 1.765zm-2.9-2.614h-1.944v-.938h1.944zm-11.04-5.43a21.129 21.129 0 01-1.966 5.92 8.2 8.2 0 012.927 1.162c.112-.268.112-.268.335-.782.424.469.581.626.849.938a13.508 13.508 0 01-3.842 4.915 6.371 6.371 0 012.636 1.586 17.052 17.052 0 002.881-4.021 13.792 13.792 0 01.849 1.79 11.664 11.664 0 012.351-1.969 15.778 15.778 0 00-1.837-2.971 34.3 34.3 0 001.273-9.338h-3.016c.134-.916.223-1.608.335-2.748.313-.045.626-.112.626-.357 0-.223-.223-.246-.514-.29l-3.105-.4c-.134 2.256-.2 2.725-.335 3.8h-1.827v2.77zm3.6 0a19.06 19.06 0 01-.469 4.2c-.424-.424-.737-.693-.961-.916.112-.357.38-1.586.67-3.284zm11.259-1.407v.76h-8.042v2.122h11.259V4.796h-11.262v2.122h8.042v.715h-7.193v1.832zm16.261 2.3a2.722 2.722 0 00-2.725 2.726 2.736 2.736 0 002.725 2.725 2.736 2.736 0 002.725-2.725 2.736 2.736 0 00-2.725-2.726zm26.987-6.345a43.444 43.444 0 01-6.233.514 44.982 44.982 0 01-5.563-.29l.179 3.731c1.9.045 5.652-.156 7.037-.268-.648.536-.849.693-1.676 1.452.693.514 1.541 1.229 2.346 1.921a15.641 15.641 0 015.63-3.641zm-10.165 8.646c-.916.827-3.239 2.9-3.239 5.228 0 2.256 2.122 3.306 2.837 3.6 1.095.447 2.48.827 5.965.827a33.963 33.963 0 008.735-1.031 16.931 16.931 0 01-.581-3.8 31.191 31.191 0 01-8.958 1.34c-.938 0-4 0-4-1.608 0-.737 1.117-1.9 1.743-2.435zm13.315-9.092a18.8 18.8 0 011.944 2.189 8.921 8.921 0 011.43-1.519 23.913 23.913 0 00-2.1-2.189zm-1.877 1.854a24.7 24.7 0 012.145 2.48A9.05 9.05 0 01360.1 7.7a15.976 15.976 0 00-2.033-2.346zm12.44 2.815a17.565 17.565 0 01-6.989 12.846 11.352 11.352 0 012.989 1.854 20.4 20.4 0 005.858-7.863 12.153 12.153 0 001.942 3.149 17.435 17.435 0 01-5.673 3.105 9.838 9.838 0 012.48 2.323 14.585 14.585 0 005.585-3.329 22.1 22.1 0 006.434 3.262 7.5 7.5 0 012.234-2.948c-3.105-.782-4.58-1.273-6.546-2.636a21.281 21.281 0 003.641-6.836l-1.5-1.072h-7.145c.067-.4.156-.916.246-1.854h10.589V6.56h-10.411V4.795c.223-.045.648-.134.648-.447 0-.2-.179-.29-.469-.313l-3.82-.156c.045.693.112 1.3.112 2.681h-6.323v3.083zm7.439 5a11.752 11.752 0 01-1.452 2.681 10.2 10.2 0 01-1.7-2.681zm17.071-10.451c.134 5.853-.156 8.31-1.184 10.924a12.107 12.107 0 01-7.685 6.814 8.679 8.679 0 012.815 2.681 17.1 17.1 0 004.624-3.217c2.5-2.435 3.038-3.82 3.329-4.58a20.574 20.574 0 003.552 4.6 16.226 16.226 0 004.539 3.219 7.065 7.065 0 012.368-2.77c-9.048-4.423-8.936-9.584-8.78-16.621.469-.223.536-.313.536-.469 0-.067-.045-.29-.536-.335zM290.019 40.856v9.36h3.058v-1.228h6.635v-8.132zm6.635 2.591v2.725h-3.577v-2.725zm-11.55-10.433V52.83h3.4V35.852h12.734v12.8c0 .827-.179.827-1.028.827a6.18 6.18 0 01-1.3-.134 15.959 15.959 0 011.095 3.418c3.865.134 4.624-.76 4.624-2.748v-17zm4.111 3.887v2.636h11.3v-2.635zm29.869 1.7v-5.385c.38-.156.581-.246.581-.469s-.357-.268-.581-.29l-3.8-.223V38.6h-8.221v3.28h8.221v7.037h-6.233v3.306h16.332v-3.302h-6.3V41.88h8.356V38.6zm24.038.6c.045 2.256.112 7.126-3.172 10.589v-.871h-2.146v-.939h1.586v-1.673h-1.586v-.938h1.586v-1.676h-1.586V42.8h2.145v-1.966h-1.765a9.1 9.1 0 00.424-.938c.134-.022.447-.089.447-.357 0-.045-.045-.089-.067-.134h.648a10.984 10.984 0 01-.693.916 6.976 6.976 0 012.434 1.585 21.315 21.315 0 001.72-3.172h3.954a10.469 10.469 0 01-1.095 2.681 9.057 9.057 0 012.547 1.028 59.159 59.159 0 001.944-5.607l-1.005-.8h-5.25a24.768 24.768 0 00.737-2.413c.514-.223.648-.268.648-.514s-.335-.313-.491-.335l-2.809-.452a21.978 21.978 0 01-1.854 5.674v-.961h-3.758c.134-.268.246-.514.491-1.072h2.9v-2.345h-5.737l.067-.089c.2-.022.558-.067.558-.357a.309.309 0 00-.267-.292l-2.793-.647a16.08 16.08 0 01-2.971 3.976 6.552 6.552 0 011.631.827h-1.162v2.368h2.681a14.907 14.907 0 01-3.664 3.485 4.037 4.037 0 011.966 1.991c.246-.2.335-.268.514-.424v8.176h2.7v-1.477h4.918a7.557 7.557 0 012.524 1.7 10.832 10.832 0 003.574-4.915 16.538 16.538 0 003.664 5 7.2 7.2 0 012.256-2.122 15.508 15.508 0 01-4.915-7.193c.089-1.005.112-1.988.134-3.262.313-.089.67-.179.67-.514 0-.223-.179-.246-.447-.29zm-7.864 6.168v.938h-1.676v-.938zm-1.676-1.676V42.8h1.676v.894zm0 5.228v-.941h1.676v.938zm2.569-9.517a8.964 8.964 0 01-.648 1.43h-1.206c.424-.581.67-.938 1.005-1.43zm-4.374-2.368c.581-.693.737-.871.916-1.072h1.403c-.134.313-.335.67-.536 1.072zm26.268 7.444a7.089 7.089 0 01-1.072.223v-4.137h-5.34v3.172h2.167v4.242a13.526 13.526 0 01-2.792 1.854l1.675 2.725c.067.112.112.156.246.156.29 0 .357-.313.424-.559.559-.357 1.966-1.34 2.5-1.787.938 1.452 3.262 2.055 5.451 2.055h10.5a11.388 11.388 0 01.938-3.463c-2.39.469-4.423.693-10.589.693-2.323 0-3.016-.022-3.82-.38a2.129 2.129 0 01-1.356-1.984v-2.569l.693 2.681c.112.447.223.626.469.626.29 0 .313-.179.4-.626.916-.246 3.82-1.005 4.446-1.229a16.341 16.341 0 01.29-3.172c-.424.156-.67.246-1.966.626v-7.664a12.342 12.342 0 002.457-.916v14.008h3.172v-3.731a5.217 5.217 0 01.827 2.547 4.666 4.666 0 002.457-.424 2.024 2.024 0 001.273-2.122v-12h-7.73v.626l-1.722-1.671a6.159 6.159 0 01-2.591 1.05l-1.407-.179zm8.891-8.221h1.407v7.484c0 .447-.089.715-.76.715a2.122 2.122 0 01-.648-.089zm-15.415-1.81a20.3 20.3 0 013.708 3.217 14.538 14.538 0 012.257-2.286 13.729 13.729 0 00-3.82-3.172z" fill="#0792af"/><path data-name="パス 27" d="M44.872 9.643h3.351v-.827h2.524V4.638H35.734v4.178h2.524v.827h3.775v.581h-4.87v6.836h4.87v.626h-5.429v2.212h5.429v1.251h2.837v-1.252h5.875v-2.212H44.87v-.625h4.87v-6.836h-4.87zm0 2.368h1.988v.849h-1.988zm-2.837.849h-1.988v-.849h1.988zm2.837 1.541h1.988v.871h-1.988zm-2.837.871h-1.988v-.871h1.988zm2.837-8.378h3.172v.715h-3.172zm-2.837.715h-3.6v-.715h3.6zM30.127 6.493a23.4 23.4 0 012.949 3.44 14.21 14.21 0 012.457-2.279 25.414 25.414 0 00-3.239-3.174zm.469 5.942v2.9h2.167v4.624a17.006 17.006 0 01-2.86 1.452l1.5 2.949c.089.179.246.357.38.357.335 0 .313-.246.29-.693a13.166 13.166 0 002.41-1.826c1.675 1.988 3.887 2.167 6.389 2.167h9.785a8.788 8.788 0 01.849-3.329 82.888 82.888 0 01-8.489.559c-4.245 0-6.992-.067-6.992-2.5v-6.657zm38.648-3.641V7.699h-4.647v-.827c.827-.112 1.519-.246 2.636-.491a1.055 1.055 0 00.559.246c.179 0 .223-.156.223-.268a.526.526 0 00-.112-.29l-1.34-1.921a20.039 20.039 0 01-6.948.938 14.275 14.275 0 01-1.72-.067A5.022 5.022 0 0158.9 7.231c1.028.022 1.72-.022 2.882-.089v.559h-4.379v2.234h4.379v.626h-3.887v6.719h3.887v.648h-4.021v2.033h4.021v.983c-2.457.134-3.552.179-4.379.134l.359 2.572c.045.268.156.514.4.514s.38-.313.491-.514a69.93 69.93 0 008.154-.8c-.156.223-.38.491-.447.581a13.024 13.024 0 012.591 1.541 16.833 16.833 0 002.055-3.15 10.459 10.459 0 011.184 2.748 4.857 4.857 0 003.555-.99c1.7-1.7 1.7-7.953 1.7-14.789h-3.688V5.239c.313-.112.559-.268.559-.469 0-.268-.2-.357-.559-.38l-3.061-.156v4.557zm-.38 3.329h1.743a19.816 19.816 0 01-2.77 9.182c.112-.424.156-.626.246-.916-.983.156-2.256.268-3.485.357v-.782h3.82v-2.033h-3.82v-.651h3.887v-6.724h-3.887V9.93h4.267zm-8.31 1.05v-.849h1.229v.849zm1.229 1.5v.849h-1.229v-.852zm2.815-1.5v-.849h1.229v.849zm1.229 1.5v.849h-1.229v-.852zm8.534-2.547a32.744 32.744 0 01-.715 8.512c-.223.827-.469 1.028-1.005 1.028a6.3 6.3 0 01-1.407-.268 23.968 23.968 0 002.3-9.271zM90.333 22.78a5.853 5.853 0 012.344 2.077c5.362-4.133 6.076-9 6.345-15.683h2.39c.022.648.045 1.139.045 1.944a39.918 39.918 0 01-.871 9.182 1.374 1.374 0 01-1.585 1.18 13.924 13.924 0 01-2.124-.287 6.242 6.242 0 011.184 3.4c2.728.063 4.18-.183 4.984-2.283 1.318-3.485 1.273-10.41 1.206-16.308H93.104v2.725l-1.095-.693h-1.676v-2.9c.335-.134.581-.268.581-.491s-.29-.246-.447-.246l-3.217-.2v3.842h-2.927v3.016h4.6c-1.159 2.565-3.728 4.687-5.716 5.96a7.656 7.656 0 012.145 2.257 15.11 15.11 0 001.9-1.564V24.7h3.083zm3.038-11.907a11.364 11.364 0 01-2.211 3.216 7.994 7.994 0 012.167 1.675 17.3 17.3 0 001.966-2.725c.223-.022.424-.045.514-.156-.246 2.524-.67 6.679-5.474 9.673v-4.781a16.627 16.627 0 001.676 1.7 5.7 5.7 0 011.921-2.37 13.4 13.4 0 01-3.328-3.195 26.249 26.249 0 002.792-4.736h2.591c-.045 2.234-.112 2.927-.156 3.485a.579.579 0 00-.223-.246zm23.971-1.005v11.749c0 2.725 1.608 2.725 2.994 2.725h4.312c2.256 0 3.44-.112 4.289-4.222a7.014 7.014 0 01-2.949-1.564c-.402 2.724-.849 2.724-1.854 2.724h-2.368c-.916 0-.916-.313-.916-.983V10.87c.246-.089.536-.179.536-.447 0-.29-.357-.313-.536-.335zm-4.379 1.5a18.886 18.886 0 01-2.7 7.774 8.657 8.657 0 013.574 1.005c1.05-1.586 1.944-5.116 2.346-7.328.246-.045.693-.134.693-.491 0-.335-.38-.4-.6-.447zm4.915-4.8a24.964 24.964 0 015.831 3.262 16.259 16.259 0 011.9-2.86 26.681 26.681 0 00-6.076-3.195zm6.858 5.272a25.782 25.782 0 014.088 6.9 12.809 12.809 0 013.217-1.631 25.813 25.813 0 00-4.624-6.948zm28.819-7.64a21.636 21.636 0 01-2.033 3.4V6.081h-2.635V4.986c.4-.156.559-.223.559-.4 0-.223-.223-.246-.357-.246l-3.512-.148v1.877h-6.207v2.77h6.207v1.184h-7.749v2.815h8.31a26 26 0 01-8.761 3.574 10.279 10.279 0 011.743 3.15 24.4 24.4 0 003.038-1.117V24.7h3.219v-.826h7.4v.826h3.217V14.312h-6.795a21.312 21.312 0 001.72-1.474h7.193v-2.815h-4.646c.38-.491 1.139-1.474 2.614-3.664.2.022.29.045.38.045.223 0 .335-.112.335-.246a.453.453 0 00-.223-.29zm-8.178 17.149v-1.027h7.4v1.028zm0-3.351v-1.05h7.4v1.05zm3.507-7.975V8.839h1.653c-.6.715-.849.983-1.05 1.184zm-64.337 29.18c.045 2.256.112 7.126-3.172 10.589v-.871H79.23v-.941h1.586v-1.673H79.23v-.938h1.586v-1.676H79.23V42.8h2.147v-1.966h-1.765a9.1 9.1 0 00.424-.938c.134-.022.447-.089.447-.357 0-.045-.045-.089-.067-.134h.648a10.984 10.984 0 01-.693.916 6.976 6.976 0 012.435 1.586 21.315 21.315 0 001.72-3.172h3.951a10.469 10.469 0 01-1.095 2.681 9.057 9.057 0 012.547 1.028 59.159 59.159 0 001.948-5.609l-1.005-.8h-5.25a24.768 24.768 0 00.737-2.413c.514-.223.648-.268.648-.514s-.335-.313-.491-.335l-2.815-.447A21.978 21.978 0 0181.847 38v-.961h-3.753c.134-.268.246-.514.491-1.072h2.9v-2.349h-5.741l.067-.089c.2-.022.559-.067.559-.357a.309.309 0 00-.268-.29l-2.793-.648a16.08 16.08 0 01-2.971 3.977 6.552 6.552 0 011.631.827h-1.162v2.368h2.681a14.907 14.907 0 01-3.664 3.485 4.037 4.037 0 011.967 1.989c.246-.2.335-.268.514-.424v8.176h2.7v-1.477h4.915a7.557 7.557 0 012.524 1.7 10.832 10.832 0 003.574-4.915 16.538 16.538 0 003.664 5 7.2 7.2 0 012.26-2.12 15.508 15.508 0 01-4.915-7.194c.089-1.005.112-1.988.134-3.262.313-.089.67-.179.67-.514 0-.223-.179-.246-.447-.29zm-7.864 6.166v.938h-1.676v-.938zm-1.676-1.675V42.8h1.676v.894zm0 5.228v-.942h1.676v.938zm2.569-9.517a8.964 8.964 0 01-.648 1.43h-1.206c.424-.581.67-.938 1.005-1.43zm-4.379-2.368c.581-.693.737-.871.916-1.072h1.407c-.134.313-.335.67-.536 1.072zm30.742 7.443a7.089 7.089 0 01-1.072.223v-4.137h-5.34v3.172h2.167v4.242a13.526 13.526 0 01-2.793 1.854l1.676 2.728c.067.112.112.156.246.156.29 0 .357-.313.424-.559.558-.357 1.966-1.34 2.5-1.787.938 1.452 3.262 2.055 5.451 2.055h10.5a11.388 11.388 0 01.938-3.463c-2.39.469-4.423.693-10.589.693-2.323 0-3.016-.022-3.82-.38a2.129 2.129 0 01-1.361-1.987v-2.569l.693 2.681c.112.447.223.626.469.626.29 0 .313-.179.4-.626.916-.246 3.82-1.005 4.446-1.229a16.341 16.341 0 01.29-3.172c-.424.156-.67.246-1.966.626v-7.664a12.341 12.341 0 002.457-.916v14.008h3.172v-3.731a5.217 5.217 0 01.827 2.547 4.666 4.666 0 002.457-.424 2.024 2.024 0 001.273-2.122v-12h-7.73v.626l-1.717-1.671a6.159 6.159 0 01-2.591 1.05l-1.407-.179zm8.891-8.221h1.407v7.484c0 .447-.089.715-.76.715a2.122 2.122 0 01-.648-.089zm-15.415-1.815a20.3 20.3 0 013.708 3.217 14.538 14.538 0 012.254-2.281 13.729 13.729 0 00-3.817-3.17z" fill="#0792af"/><path data-name="パス 25" d="M550.692 6.58a.3.3 0 00-.2-.268l-3.44-1.139a19.826 19.826 0 01-3.038 5.7 12.645 12.645 0 013.038 1.318h-4.045V4.953c.313-.089.514-.156.514-.4s-.223-.268-.514-.29l-3.552-.223v8.154h-4.245a16.01 16.01 0 013.105-1.676 19.837 19.837 0 00-3.306-5.674l-3.083 1.564a21.329 21.329 0 013.262 5.786h-3.44v2.748h15.124v1.7h-13.74v2.681h13.739v1.743h-15.124v2.852h15.124v.827h3.552V12.19h-3.346a41.356 41.356 0 002.927-5.116 4.169 4.169 0 00.491-.156.346.346 0 00.197-.338zm17.358 15.953v1.229h3.507V5.532h-16.018v18.23h3.507v-1.229zm-9-3.195V15.38h9v3.954zm0-6.97V8.637h9v3.731zm29.846-.424c.491-.424.76-.6 1.095-.849a9.751 9.751 0 00-1.251-.76 32.6 32.6 0 004.892-3.82l-1.255-1.72H577.79v2.86h4.379l-2.123 2.325a40.288 40.288 0 014.87 1.966h-9.226v3.15h8.579v5.138c0 1.005-.112 1.318-1.072 1.318a9.478 9.478 0 01-1.81-.179 7.571 7.571 0 011.09 3.283c3.6.067 5.161-.223 5.161-2.725v-6.837h3.668a13.063 13.063 0 01-2.838 2.971 7.618 7.618 0 012.681 2.167 31.564 31.564 0 005.272-6.657l-1.63-1.631zm-1.5-4.289a14.186 14.186 0 01-1.653 1.225c-1.184-.469-2.927-1.072-3.329-1.229zm17.448-1.519a21.251 21.251 0 01-2.078 3.418c-.179-.156-.246-.223-.6-.559a36.139 36.139 0 002.033-3.306c.536-.045.67-.067.67-.29 0-.156-.089-.246-.246-.313l-2.591-1.251a17.953 17.953 0 01-1.765 3.53c-.2-.156-.335-.268-.827-.626l-1.81 2.569c.268.246.447.38 1.854 1.586a17.439 17.439 0 011.318 1.251c-.134.179-.6.76-1.028 1.251-.648.045-1.251.067-1.81.089l.29 2.927a.419.419 0 00.4.424.292.292 0 00.268-.134 3.279 3.279 0 00.2-.38c.469-.067 1.877-.156 2.457-.2v1.34a.228.228 0 00-.179-.112l-2.86-.246a18.016 18.016 0 01-1.05 5.7 13.006 13.006 0 012.792.491 22.4 22.4 0 00.894-5.25 1.356 1.356 0 00.4-.223v6.858h3.016v-8.8l.938-.089c.022.179.022.246.089.8a16.848 16.848 0 012.725-.849 41.352 41.352 0 00-1.028-4.111 9.591 9.591 0 011.765 1.139 15.776 15.776 0 001.526-2.39h4.4a50.369 50.369 0 01-.38 8.489c-.179.961-.581 2.5-2.078 2.5a10.348 10.348 0 01-1.966-.335c1.342 2.146 1.387 3.108 1.409 3.646 2.145.112 4.222-.067 5.094-2.323 1.162-3.083 1.139-11.393 1.05-14.878h-6.059c.4-.938.491-1.162.67-1.541.2-.067.581-.2.581-.4a.471.471 0 00-.29-.357l-3.15-.983a19.586 19.586 0 01-3.548 6.982.669.669 0 01.179.089l-1.877.469a9.535 9.535 0 01.447 1.474c-.2.022-1.81.179-2.1.2a56.677 56.677 0 002.837-3.507c.179-.246 1.005-1.452 1.206-1.7.223 0 .648-.022.648-.313a.417.417 0 00-.246-.335zm.312 11.144a24.311 24.311 0 00.938 5.161 11.644 11.644 0 012.7-.916 21.026 21.026 0 01-.983-4.87zm3.686-3.909a21.031 21.031 0 011.988 5.138c.112-.045 1.877-.827 2.815-1.229a19.685 19.685 0 00-1.968-4.889zm21.715-1.606a2.722 2.722 0 00-2.725 2.725 2.736 2.736 0 002.725 2.726 2.736 2.736 0 002.725-2.725 2.736 2.736 0 00-2.725-2.726zm-111.454 24.8l-5.362.67.4 3.351 5.451-.715.335 2.3-7.73 1.005.4 3.351 7.819-1.028 1.05 7.171 3.574-.6-1.028-7.037 7.328-.983-.38-3.284-7.439.961-.335-2.323 4.915-.67-.38-3.262-5.027.626-.424-2.9c.179-.134.335-.268.335-.469 0-.268-.313-.246-.469-.223l-3.574.491zm21.781 4.115l-4.758.961.851 3.039 4.49-1.005 1.72 8.668 3.038-.715-1.699-8.648 2.971-.67a16.073 16.073 0 01-1.631 2.547 20.335 20.335 0 012.927 1.407 50.921 50.921 0 013.753-6.255l-2.169-1.629a1.887 1.887 0 01-1.028.6l-5.384 1.095-.648-3.239c.156-.112.335-.246.335-.424 0-.268-.268-.223-.469-.2l-3.128.38zm16.666-4.513a22.987 22.987 0 015.63 3.574c1.474-2.145 1.631-2.39 2.167-3.038a21.289 21.289 0 00-5.585-3.664zm2.48 15.928c.134.246.223.313.357.313.2 0 .313-.246.313-.491a37.14 37.14 0 009.2-4.982 29.562 29.562 0 006.948-7.439 14.313 14.313 0 01-2.3-3.038 26.451 26.451 0 01-16.618 12.016zm24.552-13l-5.161.626.313 3.44 4.843-.581v4.8c0 2.837.626 4.557 4.982 4.557 1.564 0 5.987-.022 7.685-.067a18.51 18.51 0 01.433-3.62 64.6 64.6 0 01-7.238.4c-1.787 0-2.212-.335-2.212-1.7v-4.821l5.268-.649a20.647 20.647 0 01-2.681 3.351 26 26 0 013.038 1.832c.626-.8 3.507-4.982 4.2-5.875.2-.246.715-.894 1.005-1.229l-2.323-2.122a6.127 6.127 0 01-1.608.424l-6.9.8v-4.909c.179-.045.447-.156.447-.38s-.223-.246-.447-.246l-3.649-.178zm20.575-5.25v6.568a7.935 7.935 0 01-1.095 4.58 11.911 11.911 0 01-3.619 3.44 11.358 11.358 0 013.016 2.435c2.681-2.3 5.54-4.781 5.54-10.656v-5.455c.089-.045.38-.156.38-.424 0-.29-.268-.29-.514-.313zm5.72-.205v14.119c0 .626-.045 1.184-.089 1.787l2.368 1.519c.871-.67 1.743-1.363 2.636-2.011a38.4 38.4 0 006.278-6.188 10.406 10.406 0 01-1.72-3.351 23.953 23.953 0 01-5.786 5.853V34.489c.2-.089.424-.2.424-.4 0-.223-.179-.223-.424-.246zm29.98 8.668c0-6.278-4.356-9.293-8.847-9.293-4.535 0-8.847 3.061-8.847 9.293s4.312 9.293 8.847 9.293c4.489 0 8.846-3.015 8.846-9.293zm-8.847-5.942c1.631 0 4.714.849 4.714 5.942 0 5.161-3.15 5.942-4.714 5.942-1.765 0-4.714-.983-4.714-5.942-.001-5.093 3.105-5.942 4.713-5.942zm17.783 6.791l6.054 7.953h4.915l-8-10.723 7.395-6.881h-4.98L647.2 40.99v-7.484h-4.023v17.6h4.021v-5.514z" fill="#0792af"/><path data-name="線 52" fill="none" stroke="#0090ae" stroke-width="2" d="M.877.48l29 53"/><path data-name="線 55" fill="none" stroke="#0090ae" stroke-width="2" d="M221.377.48l29 53"/><path data-name="線 57" fill="none" stroke="#0090ae" stroke-width="2" d="M468.377.48l29 53"/><path data-name="線 53" fill="none" stroke="#0090ae" stroke-width="2" d="M155.877 53.48l29-53"/><path data-name="線 54" fill="none" stroke="#0090ae" stroke-width="2" d="M406.377 53.48l29-53"/><path data-name="線 56" fill="none" stroke="#0090ae" stroke-width="2" d="M675.377 53.48l29-53"/></svg>