<svg xmlns="http://www.w3.org/2000/svg" viewBox="0 0 512 512" style="width:256px;height:256px"><path d="M486.411 118.802c-4.762-12.576-19.669-25.278-32.246-27.888-136.801-22.192-259.14-22.256-396.328 0-12.577 2.61-27.484 15.312-32.246 27.888-34.124 88.434-34.118 185.961 0 274.394 4.762 12.577 19.67 25.278 32.246 27.888 137.188 22.256 259.527 22.196 396.328.004 12.577-2.614 27.483-15.315 32.246-27.892 34.117-88.437 34.12-185.96 0-274.394zM335.847 264.571c-44.104 25.17-66.67 38.502-109.29 63.439-6.493 3.845-14.776-1.096-14.954-8.822-1.163-50.55-1.163-75.827 0-126.379.178-7.724 8.462-12.665 14.954-8.887 42.62 24.961 65.186 38.31 109.29 63.506 6.717 3.814 6.717 13.328 0 17.143z" fill="#4b4b4b"/></svg>