<svg xmlns="http://www.w3.org/2000/svg" width="705.255" height="53.96" viewBox="0 0 705.255 53.96">
  <g id="catch" transform="translate(-390.623 -626.02)">
    <path id="パス_26" data-name="パス 26" d="M-62.373-17.559a43.444,43.444,0,0,1-6.233.514,44.982,44.982,0,0,1-5.563-.29l.179,3.731c1.9.045,5.652-.156,7.037-.268-.648.536-.849.693-1.675,1.452.693.514,1.541,1.229,2.346,1.921a15.641,15.641,0,0,1,5.63-3.641ZM-72.538-8.914c-.916.827-3.239,2.9-3.239,5.228,0,2.256,2.122,3.306,2.837,3.6,1.095.447,2.48.827,5.965.827A33.963,33.963,0,0,0-58.24-.29a16.931,16.931,0,0,1-.581-3.8,31.191,31.191,0,0,1-8.958,1.34c-.938,0-4,0-4-1.608,0-.737,1.117-1.9,1.743-2.435Zm13.315-9.092a18.8,18.8,0,0,1,1.944,2.189,8.921,8.921,0,0,1,1.43-1.519,23.913,23.913,0,0,0-2.1-2.189ZM-61.1-16.152a24.7,24.7,0,0,1,2.145,2.48,9.05,9.05,0,0,1,1.318-1.608,15.977,15.977,0,0,0-2.033-2.346Zm14.744.536h-6.881v2.994h6.881v2.7h-8.422v2.927h7.931c-1.541,4.289-5.339,5.295-8.31,6.1a6.786,6.786,0,0,1,1.921,2.77,12.919,12.919,0,0,0,8.713-6.389,14.775,14.775,0,0,0,8.266,6.389,5.364,5.364,0,0,1,2.145-2.77c-1.675-.357-6.5-2.368-8.31-6.1h7.841V-9.919h-8.445v-2.7h6.9v-2.994h-6.9v-2.547c.246-.112.469-.223.469-.424,0-.246-.268-.268-.469-.268l-3.329-.089Zm29.176,13.9A9.521,9.521,0,0,1-16.6.536c3.552,0,3.552-1.251,3.552-2.323V-5.205h.961V-9.9H-24.842v4.691h1.072V.134H-21v-4.2h.916V1.653h2.9Zm0-5.9h2.033v.938h-2.033Zm0,3.552h1.05c0,1.631,0,1.9-1.05,1.765Zm-2.9-2.614h-1.944v-.938h1.944ZM-31.12-12.108a21.129,21.129,0,0,1-1.966,5.92,8.2,8.2,0,0,1,2.927,1.162c.112-.268.112-.268.335-.782.424.469.581.626.849.938A13.508,13.508,0,0,1-32.817.045a6.371,6.371,0,0,1,2.636,1.586A17.052,17.052,0,0,0-27.3-2.39,13.792,13.792,0,0,1-26.451-.6,11.664,11.664,0,0,1-24.1-2.569,15.778,15.778,0,0,0-25.937-5.54a34.3,34.3,0,0,0,1.273-9.338h-3.016c.134-.916.223-1.608.335-2.748.313-.045.626-.112.626-.357,0-.223-.223-.246-.514-.29l-3.105-.4c-.134,2.256-.2,2.725-.335,3.8H-32.5v2.77Zm3.6,0a19.06,19.06,0,0,1-.469,4.2c-.424-.424-.737-.693-.961-.916.112-.357.38-1.586.67-3.284Zm11.259-1.407v.76h-8.042v2.122h11.259v-7.551H-24.306v2.122h8.042v.715h-7.193v1.832ZM0-11.215A2.722,2.722,0,0,0-2.725-8.489,2.736,2.736,0,0,0,0-5.764,2.736,2.736,0,0,0,2.725-8.489,2.736,2.736,0,0,0,0-11.215Zm26.987-6.345a43.444,43.444,0,0,1-6.233.514,44.982,44.982,0,0,1-5.563-.29l.179,3.731c1.9.045,5.652-.156,7.037-.268-.648.536-.849.693-1.676,1.452.693.514,1.541,1.229,2.346,1.921a15.641,15.641,0,0,1,5.63-3.641ZM16.822-8.914c-.916.827-3.239,2.9-3.239,5.228,0,2.256,2.122,3.306,2.837,3.6,1.095.447,2.48.827,5.965.827A33.963,33.963,0,0,0,31.12-.29a16.931,16.931,0,0,1-.581-3.8,31.191,31.191,0,0,1-8.958,1.34c-.938,0-4,0-4-1.608,0-.737,1.117-1.9,1.743-2.435Zm13.315-9.092a18.8,18.8,0,0,1,1.944,2.189,8.921,8.921,0,0,1,1.43-1.519,23.913,23.913,0,0,0-2.1-2.189ZM28.26-16.152a24.7,24.7,0,0,1,2.145,2.48,9.05,9.05,0,0,1,1.318-1.608,15.976,15.976,0,0,0-2.033-2.346ZM40.7-13.337A17.565,17.565,0,0,1,33.711-.491,11.352,11.352,0,0,1,36.7,1.363,20.4,20.4,0,0,0,42.558-6.5,12.153,12.153,0,0,0,44.5-3.351,17.435,17.435,0,0,1,38.827-.246a9.838,9.838,0,0,1,2.48,2.323,14.585,14.585,0,0,0,5.585-3.329,22.1,22.1,0,0,0,6.434,3.262A7.5,7.5,0,0,1,55.56-.938c-3.105-.782-4.58-1.273-6.546-2.636a21.281,21.281,0,0,0,3.641-6.836l-1.5-1.072H44.01c.067-.4.156-.916.246-1.854H54.845V-16.42H44.434v-1.765c.223-.045.648-.134.648-.447,0-.2-.179-.29-.469-.313l-3.82-.156c.045.693.112,1.3.112,2.681H34.582v3.083Zm7.439,5a11.752,11.752,0,0,1-1.452,2.681,10.2,10.2,0,0,1-1.7-2.681ZM65.21-18.788c.134,5.853-.156,8.31-1.184,10.924A12.107,12.107,0,0,1,56.341-1.05a8.679,8.679,0,0,1,2.815,2.681,17.1,17.1,0,0,0,4.624-3.217c2.5-2.435,3.038-3.82,3.329-4.58a20.574,20.574,0,0,0,3.552,4.6A16.226,16.226,0,0,0,75.2,1.653a7.065,7.065,0,0,1,2.368-2.77c-9.048-4.423-8.936-9.584-8.78-16.621.469-.223.536-.313.536-.469,0-.067-.045-.29-.536-.335ZM-38.358,17.876v9.36H-35.3V26.008h6.635V17.876Zm6.635,2.591v2.725H-35.3V20.467Zm-11.55-10.433V29.85h3.4V12.872h12.734v12.8c0,.827-.179.827-1.028.827a6.18,6.18,0,0,1-1.3-.134,15.959,15.959,0,0,1,1.095,3.418c3.865.134,4.624-.76,4.624-2.748v-17Zm4.111,3.887v2.636h11.3V13.922Zm29.869,1.7V10.236c.38-.156.581-.246.581-.469s-.357-.268-.581-.29l-3.8-.223V15.62h-8.221V18.9h8.221v7.037h-6.233v3.306H-2.994V25.941h-6.3V18.9H-.938V15.62Zm24.038.6c.045,2.256.112,7.126-3.172,10.589v-.871H9.427V25h1.586V23.327H9.427v-.938h1.586V20.713H9.427V19.82h2.145V17.854H9.807a9.1,9.1,0,0,0,.424-.938c.134-.022.447-.089.447-.357,0-.045-.045-.089-.067-.134h.648a10.984,10.984,0,0,1-.693.916A6.976,6.976,0,0,1,13,18.926a21.315,21.315,0,0,0,1.72-3.172h3.954a10.469,10.469,0,0,1-1.095,2.681,9.057,9.057,0,0,1,2.547,1.028,59.159,59.159,0,0,0,1.944-5.607l-1.005-.8h-5.25a24.768,24.768,0,0,0,.737-2.413c.514-.223.648-.268.648-.514s-.335-.313-.491-.335L13.9,9.342a21.978,21.978,0,0,1-1.854,5.674v-.961H8.288c.134-.268.246-.514.491-1.072h2.9V10.638H5.942l.067-.089c.2-.022.558-.067.558-.357A.309.309,0,0,0,6.3,9.9L3.507,9.253A16.08,16.08,0,0,1,.536,13.229a6.552,6.552,0,0,1,1.631.827H1.005v2.368H3.686A14.907,14.907,0,0,1,.022,19.909,4.037,4.037,0,0,1,1.988,21.9c.246-.2.335-.268.514-.424v8.176h2.7V28.175H10.12a7.557,7.557,0,0,1,2.524,1.7,10.832,10.832,0,0,0,3.574-4.915,16.538,16.538,0,0,0,3.664,5,7.2,7.2,0,0,1,2.256-2.122,15.508,15.508,0,0,1-4.915-7.193c.089-1.005.112-1.988.134-3.262.313-.089.67-.179.67-.514,0-.223-.179-.246-.447-.29ZM6.881,22.389v.938H5.205v-.938ZM5.205,20.713V19.82H6.881v.894Zm0,5.228V25H6.881v.938Zm2.569-9.517a8.964,8.964,0,0,1-.648,1.43H5.92c.424-.581.67-.938,1.005-1.43ZM3.4,14.056c.581-.693.737-.871.916-1.072H5.719c-.134.313-.335.67-.536,1.072ZM29.668,21.5a7.089,7.089,0,0,1-1.072.223V17.586H23.256v3.172h2.167V25a13.526,13.526,0,0,1-2.792,1.854l1.675,2.725c.067.112.112.156.246.156.29,0,.357-.313.424-.559.559-.357,1.966-1.34,2.5-1.787.938,1.452,3.262,2.055,5.451,2.055h10.5a11.388,11.388,0,0,1,.938-3.463c-2.39.469-4.423.693-10.589.693-2.323,0-3.016-.022-3.82-.38A2.129,2.129,0,0,1,28.6,24.31V21.741l.693,2.681c.112.447.223.626.469.626.29,0,.313-.179.4-.626.916-.246,3.82-1.005,4.446-1.229a16.341,16.341,0,0,1,.29-3.172c-.424.156-.67.246-1.966.626V12.983a12.342,12.342,0,0,0,2.457-.916V26.075h3.172V22.344a5.217,5.217,0,0,1,.827,2.547,4.666,4.666,0,0,0,2.457-.424,2.024,2.024,0,0,0,1.273-2.122v-12h-7.73v.626L33.666,9.3a6.159,6.159,0,0,1-2.591,1.05l-1.407-.179Zm8.891-8.221h1.407v7.484c0,.447-.089.715-.76.715a2.122,2.122,0,0,1-.648-.089Zm-15.415-1.81a20.3,20.3,0,0,1,3.708,3.217A14.538,14.538,0,0,1,29.109,12.4a13.729,13.729,0,0,0-3.82-3.172Z" transform="translate(719 649)" fill="#0792af"/>
    <path id="パス_27" data-name="パス 27" d="M-49.505-13.337h3.351v-.827h2.524v-4.178H-58.643v4.178h2.524v.827h3.775v.581h-4.87V-5.92h4.87v.626h-5.429v2.212h5.429v1.251h2.837V-3.083h5.875V-5.295h-5.875V-5.92h4.87v-6.836h-4.87Zm0,2.368h1.988v.849h-1.988Zm-2.837.849h-1.988v-.849h1.988Zm2.837,1.541h1.988v.871h-1.988Zm-2.837.871h-1.988v-.871h1.988Zm2.837-8.378h3.172v.715h-3.172Zm-2.837.715h-3.6v-.715h3.6ZM-64.25-16.487a23.4,23.4,0,0,1,2.949,3.44,14.21,14.21,0,0,1,2.457-2.279A25.414,25.414,0,0,0-62.083-18.5Zm.469,5.942v2.9h2.167v4.624a17.006,17.006,0,0,1-2.86,1.452l1.5,2.949c.089.179.246.357.38.357.335,0,.313-.246.29-.693A13.166,13.166,0,0,0-59.894-.782c1.675,1.988,3.887,2.167,6.389,2.167h9.785a8.788,8.788,0,0,1,.849-3.329,82.888,82.888,0,0,1-8.489.559c-4.245,0-6.992-.067-6.992-2.5v-6.657Zm38.648-3.641v-1.095h-4.647v-.827c.827-.112,1.519-.246,2.636-.491a1.055,1.055,0,0,0,.559.246c.179,0,.223-.156.223-.268a.526.526,0,0,0-.112-.29l-1.34-1.921a20.039,20.039,0,0,1-6.948.938,14.275,14.275,0,0,1-1.72-.067,5.022,5.022,0,0,1,1.005,2.212c1.028.022,1.72-.022,2.882-.089v.559h-4.379v2.234h4.379v.626h-3.887V-5.7h3.887v.648h-4.021v2.033h4.021v.983c-2.457.134-3.552.179-4.379.134L-36.615.67c.045.268.156.514.4.514s.38-.313.491-.514a69.93,69.93,0,0,0,8.154-.8c-.156.223-.38.491-.447.581a13.024,13.024,0,0,1,2.591,1.541,16.833,16.833,0,0,0,2.055-3.15,10.459,10.459,0,0,1,1.184,2.748A4.857,4.857,0,0,0-18.632.6c1.7-1.7,1.7-7.953,1.7-14.789H-20.62v-3.552c.313-.112.559-.268.559-.469,0-.268-.2-.357-.559-.38l-3.061-.156v4.557Zm-.38,3.329h1.743a19.816,19.816,0,0,1-2.77,9.182c.112-.424.156-.626.246-.916-.983.156-2.256.268-3.485.357v-.782h3.82V-5.049h-3.82V-5.7h3.887v-6.724h-3.887v-.626h4.267Zm-8.31,1.05v-.849h1.229v.849Zm1.229,1.5v.849h-1.229V-8.31Zm2.815-1.5v-.849h1.229v.849Zm1.229,1.5v.849h-1.229V-8.31Zm8.534-2.547a32.744,32.744,0,0,1-.715,8.512c-.223.827-.469,1.028-1.005,1.028a6.3,6.3,0,0,1-1.407-.268,23.968,23.968,0,0,0,2.3-9.271ZM-4.044-.2A5.853,5.853,0,0,1-1.7,1.877c5.362-4.133,6.076-9,6.345-15.683h2.39c.022.648.045,1.139.045,1.944a39.918,39.918,0,0,1-.871,9.182A1.374,1.374,0,0,1,4.624-1.5,13.924,13.924,0,0,1,2.5-1.787a6.242,6.242,0,0,1,1.184,3.4C6.412,1.676,7.864,1.43,8.668-.67c1.318-3.485,1.273-10.41,1.206-16.308H-1.273v2.725l-1.095-.693H-4.044v-2.9c.335-.134.581-.268.581-.491s-.29-.246-.447-.246l-3.217-.2v3.842h-2.927v3.016h4.6C-6.613-9.36-9.182-7.238-11.17-5.965A7.656,7.656,0,0,1-9.025-3.708a15.11,15.11,0,0,0,1.9-1.564V1.72h3.083Zm3.038-11.907A11.364,11.364,0,0,1-3.217-8.891,7.994,7.994,0,0,1-1.05-7.216,17.3,17.3,0,0,0,.916-9.941c.223-.022.424-.045.514-.156C1.184-7.573.76-3.418-4.044-.424V-5.205a16.627,16.627,0,0,0,1.676,1.7A5.7,5.7,0,0,1-.447-5.875,13.4,13.4,0,0,1-3.775-9.07,26.249,26.249,0,0,0-.983-13.806H1.608c-.045,2.234-.112,2.927-.156,3.485a.579.579,0,0,0-.223-.246Zm23.971-1.005V-1.363c0,2.725,1.608,2.725,2.994,2.725h4.312c2.256,0,3.44-.112,4.289-4.222a7.014,7.014,0,0,1-2.949-1.564C31.209-1.7,30.762-1.7,29.757-1.7H27.389c-.916,0-.916-.313-.916-.983v-9.427c.246-.089.536-.179.536-.447,0-.29-.357-.313-.536-.335Zm-4.379,1.5a18.886,18.886,0,0,1-2.7,7.774,8.657,8.657,0,0,1,3.574,1.005c1.05-1.586,1.944-5.116,2.346-7.328.246-.045.693-.134.693-.491,0-.335-.38-.4-.6-.447Zm4.915-4.8a24.964,24.964,0,0,1,5.831,3.262,16.259,16.259,0,0,1,1.9-2.86,26.681,26.681,0,0,0-6.076-3.195Zm6.858,5.272a25.782,25.782,0,0,1,4.088,6.9,12.809,12.809,0,0,1,3.217-1.631,25.813,25.813,0,0,0-4.624-6.948Zm28.819-7.64a21.636,21.636,0,0,1-2.033,3.4v-1.519H54.51v-1.095c.4-.156.559-.223.559-.4,0-.223-.223-.246-.357-.246L51.2-18.788v1.877H44.993v2.77H51.2v1.184H43.451v2.815h8.31A26,26,0,0,1,43-6.568a10.279,10.279,0,0,1,1.743,3.15,24.4,24.4,0,0,0,3.038-1.117V1.72H51V.894H58.4V1.72h3.217V-8.668H54.822a21.312,21.312,0,0,0,1.72-1.474h7.193v-2.815H59.089c.38-.491,1.139-1.474,2.614-3.664.2.022.29.045.38.045.223,0,.335-.112.335-.246a.453.453,0,0,0-.223-.29ZM51-1.631V-2.658H58.4v1.028Zm0-3.351v-1.05H58.4v1.05Zm3.507-7.975v-1.184h1.653c-.6.715-.849.983-1.05,1.184ZM-9.83,16.223c.045,2.256.112,7.126-3.172,10.589v-.871h-2.145V25h1.586V23.327h-1.586v-.938h1.586V20.713h-1.586V19.82H-13V17.854h-1.765a9.1,9.1,0,0,0,.424-.938c.134-.022.447-.089.447-.357,0-.045-.045-.089-.067-.134h.648a10.984,10.984,0,0,1-.693.916,6.976,6.976,0,0,1,2.435,1.586,21.315,21.315,0,0,0,1.72-3.172H-5.9a10.469,10.469,0,0,1-1.095,2.681,9.057,9.057,0,0,1,2.547,1.028A59.159,59.159,0,0,0-2.5,13.855l-1.005-.8h-5.25a24.768,24.768,0,0,0,.737-2.413c.514-.223.648-.268.648-.514s-.335-.313-.491-.335l-2.815-.447a21.978,21.978,0,0,1-1.854,5.674v-.961h-3.753c.134-.268.246-.514.491-1.072h2.9V10.638h-5.741l.067-.089c.2-.022.559-.067.559-.357a.309.309,0,0,0-.268-.29l-2.793-.648a16.08,16.08,0,0,1-2.971,3.977,6.552,6.552,0,0,1,1.631.827h-1.162v2.368h2.681a14.907,14.907,0,0,1-3.664,3.485A4.037,4.037,0,0,1-22.586,21.9c.246-.2.335-.268.514-.424v8.176h2.7V28.175h4.915a7.557,7.557,0,0,1,2.524,1.7,10.832,10.832,0,0,0,3.574-4.915,16.538,16.538,0,0,0,3.664,5A7.2,7.2,0,0,1-2.435,27.84,15.508,15.508,0,0,1-7.35,20.646c.089-1.005.112-1.988.134-3.262.313-.089.67-.179.67-.514,0-.223-.179-.246-.447-.29Zm-7.864,6.166v.938h-1.676v-.938Zm-1.676-1.675V19.82h1.676v.894Zm0,5.228V25h1.676v.938Zm2.569-9.517a8.964,8.964,0,0,1-.648,1.43h-1.206c.424-.581.67-.938,1.005-1.43Zm-4.379-2.368c.581-.693.737-.871.916-1.072h1.407c-.134.313-.335.67-.536,1.072ZM9.562,21.5a7.089,7.089,0,0,1-1.072.223V17.586H3.15v3.172H5.317V25a13.526,13.526,0,0,1-2.793,1.854L4.2,29.582c.067.112.112.156.246.156.29,0,.357-.313.424-.559.558-.357,1.966-1.34,2.5-1.787.938,1.452,3.262,2.055,5.451,2.055h10.5a11.388,11.388,0,0,1,.938-3.463c-2.39.469-4.423.693-10.589.693-2.323,0-3.016-.022-3.82-.38A2.129,2.129,0,0,1,8.489,24.31V21.741l.693,2.681c.112.447.223.626.469.626.29,0,.313-.179.4-.626.916-.246,3.82-1.005,4.446-1.229a16.341,16.341,0,0,1,.29-3.172c-.424.156-.67.246-1.966.626V12.983a12.341,12.341,0,0,0,2.457-.916V26.075h3.172V22.344a5.217,5.217,0,0,1,.827,2.547,4.666,4.666,0,0,0,2.457-.424,2.024,2.024,0,0,0,1.273-2.122v-12h-7.73v.626L13.56,9.3a6.159,6.159,0,0,1-2.591,1.05l-1.407-.179Zm8.891-8.221H19.86v7.484c0,.447-.089.715-.76.715a2.122,2.122,0,0,1-.648-.089ZM3.038,11.464a20.3,20.3,0,0,1,3.708,3.217A14.538,14.538,0,0,1,9,12.4,13.729,13.729,0,0,0,5.183,9.23Z" transform="translate(485 649)" fill="#0792af"/>
    <path id="パス_25" data-name="パス 25" d="M-35.185-16.4a.3.3,0,0,0-.2-.268l-3.44-1.139a19.826,19.826,0,0,1-3.038,5.7,12.645,12.645,0,0,1,3.038,1.318H-42.87v-7.238c.313-.089.514-.156.514-.4s-.223-.268-.514-.29l-3.552-.223v8.154h-4.245a16.01,16.01,0,0,1,3.105-1.676,19.837,19.837,0,0,0-3.306-5.674l-3.083,1.564a21.329,21.329,0,0,1,3.262,5.786h-3.44v2.748h15.124v1.7H-52.745v2.681h13.739v1.743H-54.13V.938h15.124v.827h3.552V-10.79H-38.8a41.356,41.356,0,0,0,2.927-5.116,4.169,4.169,0,0,0,.491-.156A.346.346,0,0,0-35.185-16.4ZM-17.827-.447V.782h3.507V-17.448H-30.338V.782h3.507V-.447Zm-9-3.195V-7.6h9v3.954Zm0-6.97v-3.731h9v3.731Zm29.846-.424c.491-.424.76-.6,1.095-.849a9.751,9.751,0,0,0-1.251-.76,32.6,32.6,0,0,0,4.892-3.82L6.5-18.185H-8.087v2.86h4.379L-5.831-13a40.288,40.288,0,0,1,4.87,1.966h-9.226v3.15h8.579v5.138c0,1.005-.112,1.318-1.072,1.318a9.478,9.478,0,0,1-1.81-.179A7.571,7.571,0,0,1-3.4,1.676c3.6.067,5.161-.223,5.161-2.725V-7.886H5.429A13.063,13.063,0,0,1,2.591-4.915,7.618,7.618,0,0,1,5.272-2.748a31.564,31.564,0,0,0,5.272-6.657L8.914-11.036Zm-1.5-4.289A14.186,14.186,0,0,1-.134-14.1c-1.184-.469-2.927-1.072-3.329-1.229Zm17.448-1.519a21.251,21.251,0,0,1-2.078,3.418c-.179-.156-.246-.223-.6-.559a36.139,36.139,0,0,0,2.033-3.306c.536-.045.67-.067.67-.29,0-.156-.089-.246-.246-.313l-2.591-1.251a17.953,17.953,0,0,1-1.765,3.53c-.2-.156-.335-.268-.827-.626l-1.81,2.569c.268.246.447.38,1.854,1.586a17.439,17.439,0,0,1,1.318,1.251c-.134.179-.6.76-1.028,1.251-.648.045-1.251.067-1.81.089l.29,2.927a.419.419,0,0,0,.4.424.292.292,0,0,0,.268-.134,3.279,3.279,0,0,0,.2-.38c.469-.067,1.877-.156,2.457-.2v1.34a.228.228,0,0,0-.179-.112l-2.86-.246a18.016,18.016,0,0,1-1.05,5.7,13.006,13.006,0,0,1,2.792.491,22.4,22.4,0,0,0,.894-5.25,1.356,1.356,0,0,0,.4-.223V1.7h3.016V-7.1l.938-.089c.022.179.022.246.089.8a16.848,16.848,0,0,1,2.725-.849,41.352,41.352,0,0,0-1.028-4.111,9.591,9.591,0,0,1,1.765,1.139A15.776,15.776,0,0,0,24.73-12.6h4.4a50.369,50.369,0,0,1-.38,8.489c-.179.961-.581,2.5-2.078,2.5a10.348,10.348,0,0,1-1.966-.335C26.048.2,26.093,1.162,26.115,1.7c2.145.112,4.222-.067,5.094-2.323,1.162-3.083,1.139-11.393,1.05-14.878H26.2c.4-.938.491-1.162.67-1.541.2-.067.581-.2.581-.4a.471.471,0,0,0-.29-.357l-3.15-.983A19.586,19.586,0,0,1,20.463-11.8a.669.669,0,0,1,.179.089l-1.877.469a9.535,9.535,0,0,1,.447,1.474c-.2.022-1.81.179-2.1.2,1.541-1.765,2.591-3.172,2.837-3.507.179-.246,1.005-1.452,1.206-1.7.223,0,.648-.022.648-.313a.417.417,0,0,0-.246-.335ZM19.279-5.7a24.311,24.311,0,0,0,.938,5.161,11.644,11.644,0,0,1,2.7-.916,21.026,21.026,0,0,1-.983-4.87Zm3.686-3.909a21.031,21.031,0,0,1,1.988,5.138c.112-.045,1.877-.827,2.815-1.229A19.685,19.685,0,0,0,25.8-10.589ZM44.68-11.215a2.722,2.722,0,0,0-2.725,2.725A2.736,2.736,0,0,0,44.68-5.764a2.736,2.736,0,0,0,2.725-2.725A2.736,2.736,0,0,0,44.68-11.215Zm-111.454,24.8-5.362.67.4,3.351,5.451-.715.335,2.3-7.73,1.005.4,3.351,7.819-1.028,1.05,7.171,3.574-.6-1.028-7.037,7.328-.983-.38-3.284-7.439.961-.335-2.323,4.915-.67-.38-3.262-5.027.626-.424-2.9c.179-.134.335-.268.335-.469,0-.268-.313-.246-.469-.223l-3.574.491ZM-44.993,17.7l-4.758.961L-48.9,21.7l4.49-1.005,1.72,8.668,3.038-.715L-41.351,20l2.971-.67a16.073,16.073,0,0,1-1.631,2.547,20.335,20.335,0,0,1,2.927,1.407,50.921,50.921,0,0,1,3.753-6.255L-35.5,15.4a1.887,1.887,0,0,1-1.028.6l-5.384,1.095-.648-3.239c.156-.112.335-.246.335-.424,0-.268-.268-.223-.469-.2l-3.128.38Zm16.666-4.513a22.987,22.987,0,0,1,5.63,3.574c1.474-2.145,1.631-2.39,2.167-3.038a21.289,21.289,0,0,0-5.585-3.664Zm2.48,15.928c.134.246.223.313.357.313.2,0,.313-.246.313-.491a37.14,37.14,0,0,0,9.2-4.982,29.562,29.562,0,0,0,6.948-7.439,14.313,14.313,0,0,1-2.3-3.038A26.451,26.451,0,0,1-27.947,25.494Zm24.552-13-5.161.626.313,3.44L-1.3,19.6v4.8c0,2.837.626,4.557,4.982,4.557,1.564,0,5.987-.022,7.685-.067A18.51,18.51,0,0,1,11.8,25.27a64.6,64.6,0,0,1-7.238.4c-1.787,0-2.212-.335-2.212-1.7V19.149L7.618,18.5a20.647,20.647,0,0,1-2.681,3.351,26,26,0,0,1,3.038,1.832c.626-.8,3.507-4.982,4.2-5.875.2-.246.715-.894,1.005-1.229l-2.323-2.122a6.127,6.127,0,0,1-1.608.424l-6.9.8V10.772c.179-.045.447-.156.447-.38s-.223-.246-.447-.246L-1.3,9.968Zm20.575-5.25v6.568a7.935,7.935,0,0,1-1.095,4.58,11.911,11.911,0,0,1-3.619,3.44,11.358,11.358,0,0,1,3.016,2.435c2.681-2.3,5.54-4.781,5.54-10.656V11.777c.089-.045.38-.156.38-.424,0-.29-.268-.29-.514-.313ZM25,10.66V24.779c0,.626-.045,1.184-.089,1.787l2.368,1.519c.871-.67,1.743-1.363,2.636-2.011a38.4,38.4,0,0,0,6.278-6.188,10.406,10.406,0,0,1-1.72-3.351,23.953,23.953,0,0,1-5.786,5.853V11.509c.2-.089.424-.2.424-.4,0-.223-.179-.223-.424-.246Zm29.98,8.668c0-6.278-4.356-9.293-8.847-9.293-4.535,0-8.847,3.061-8.847,9.293s4.312,9.293,8.847,9.293C50.622,28.621,54.979,25.606,54.979,19.328Zm-8.847-5.942c1.631,0,4.714.849,4.714,5.942,0,5.161-3.15,5.942-4.714,5.942-1.765,0-4.714-.983-4.714-5.942C41.418,14.235,44.524,13.386,46.132,13.386Zm17.783,6.791,6.054,7.953h4.915l-8-10.723,7.395-6.881H69.3L61.323,18.01V10.526H57.3v17.6h4.021V22.612Z" transform="translate(976.5 649)" fill="#0792af"/>
    <line id="線_52" data-name="線 52" x2="29" y2="53" transform="translate(391.5 626.5)" fill="none" stroke="#0090ae" stroke-width="2"/>
    <line id="線_55" data-name="線 55" x2="29" y2="53" transform="translate(612 626.5)" fill="none" stroke="#0090ae" stroke-width="2"/>
    <line id="線_57" data-name="線 57" x2="29" y2="53" transform="translate(859 626.5)" fill="none" stroke="#0090ae" stroke-width="2"/>
    <line id="線_53" data-name="線 53" y1="53" x2="29" transform="translate(546.5 626.5)" fill="none" stroke="#0090ae" stroke-width="2"/>
    <line id="線_54" data-name="線 54" y1="53" x2="29" transform="translate(797 626.5)" fill="none" stroke="#0090ae" stroke-width="2"/>
    <line id="線_56" data-name="線 56" y1="53" x2="29" transform="translate(1066 626.5)" fill="none" stroke="#0090ae" stroke-width="2"/>
  </g>
</svg>
