<svg xmlns="http://www.w3.org/2000/svg" width="346.48" height="55.76" viewBox="0 0 346.48 55.76"><path d="M41.04 38.72c-4.72 4.64-9.04 5.52-12.24 5.52a16.2 16.2 0 01-11.52-4.48A16.054 16.054 0 0112.64 28a17.091 17.091 0 015.04-12.32 14.97 14.97 0 0110.88-4.16 16.91 16.91 0 0112.48 5.68V2.96A31.766 31.766 0 0028.24 0 28.324 28.324 0 008.32 7.68 27.833 27.833 0 000 27.76 27.936 27.936 0 008.32 48c4.48 4.4 11.12 7.76 20.96 7.76a24.792 24.792 0 0011.76-2.88zM77.52 0C66.88 0 60.24 4.24 56.64 7.84a29.791 29.791 0 00-8.24 20.24 27.248 27.248 0 008.32 19.84c4 3.84 10.8 7.84 20.8 7.84 8.96 0 15.68-3.04 20.64-7.84a27.588 27.588 0 008.32-20 27.762 27.762 0 00-8.32-20.16C92.8 2.56 85.84 0 77.52 0zm-.08 11.36a17.115 17.115 0 0111.76 4.56 16.819 16.819 0 014.64 12c0 6.16-2.56 9.92-4.64 11.92a16.156 16.156 0 01-11.84 4.56A15.694 15.694 0 0165.92 40a15.92 15.92 0 01-4.88-12 16.346 16.346 0 014.72-12.08 16.376 16.376 0 0111.68-4.56zM128 54.56V20l28.96 34.56h10.72V1.2h-12.32v34.4L126.4 1.2h-10.72v53.36zm89.92-15.84c-4.72 4.64-9.04 5.52-12.24 5.52a16.2 16.2 0 01-11.52-4.48A16.054 16.054 0 01189.52 28a17.091 17.091 0 015.04-12.32 14.97 14.97 0 0110.88-4.16 16.91 16.91 0 0112.48 5.68V2.96A31.766 31.766 0 00205.12 0a28.324 28.324 0 00-19.92 7.68 27.833 27.833 0 00-8.32 20.08A27.936 27.936 0 00185.2 48c4.48 4.4 11.12 7.76 20.96 7.76a24.792 24.792 0 0011.76-2.88zm40-37.52h-30.16v53.36h30.16v-10.4h-17.84V32.32h16.96v-10.4h-16.96V11.6h17.84zm10 0v53.36h12.32V35.84h7.52c3.76 0 9.36-.4 13.6-4.72 2-2.08 4.56-5.84 4.56-12.56 0-3.68-.64-8.96-5.2-12.96-4.24-3.76-9.36-4.4-14-4.4zm12.32 10.08h4.16c2.4 0 5.04.24 6.88 2a7.04 7.04 0 012 5.2 7.431 7.431 0 01-2 5.28c-2 1.92-4.96 2-6.64 2h-4.4zm66.24.32V1.2h-35.52v10.4h11.6v42.96h12.32V11.6z" fill="#fff"/></svg>