<svg xmlns="http://www.w3.org/2000/svg" width="163.56" height="27.88" viewBox="0 0 163.56 27.88"><path d="M6.16 27.28l2.12-15.92 6.68 15.92h2.16l6.68-15.92 2.12 15.92h6.16L27.8.6h-5.12l-6.64 15.96L9.4.6H4.28L0 27.28zM36.8.6v26.68h6.16V.6zm28.64 2.04A12.9 12.9 0 0057.52 0a8.591 8.591 0 00-6.6 2.44 8.2 8.2 0 00-2.32 6 6.56 6.56 0 001.6 4.64 8.981 8.981 0 003.72 2.12l2.2.76a13.03 13.03 0 013.12 1.48 2.353 2.353 0 01.92 1.92 2.761 2.761 0 01-.96 2.16 4.26 4.26 0 01-2.8.92 6.2 6.2 0 01-3.36-.96 16.336 16.336 0 01-2.48-2.04l-3.2 4.4a16.969 16.969 0 003.92 2.92 11.305 11.305 0 005.28 1.12c1.76 0 5.2-.24 7.56-2.72a9.562 9.562 0 002.36-6.6 6.654 6.654 0 00-1.96-4.96 10.7 10.7 0 00-3.64-2.04l-2-.76c-1.8-.68-2.72-.92-3.36-1.52a1.871 1.871 0 01-.6-1.48 2.386 2.386 0 01.68-1.68 3.336 3.336 0 012.6-.92 6.5 6.5 0 014.48 1.92zm22 0A12.9 12.9 0 0079.52 0a8.591 8.591 0 00-6.6 2.44 8.2 8.2 0 00-2.32 6 6.56 6.56 0 001.6 4.64 8.981 8.981 0 003.72 2.12l2.2.76a13.03 13.03 0 013.12 1.48 2.353 2.353 0 01.92 1.92 2.761 2.761 0 01-.96 2.16 4.26 4.26 0 01-2.8.92 6.2 6.2 0 01-3.36-.96 16.336 16.336 0 01-2.48-2.04l-3.2 4.4a16.969 16.969 0 003.92 2.92 11.305 11.305 0 005.28 1.12c1.76 0 5.2-.24 7.56-2.72a9.562 9.562 0 002.36-6.6 6.654 6.654 0 00-1.96-4.96 10.7 10.7 0 00-3.64-2.04l-2-.76c-1.8-.68-2.72-.92-3.36-1.52a1.871 1.871 0 01-.6-1.48 2.386 2.386 0 01.68-1.68 3.336 3.336 0 012.6-.92 6.5 6.5 0 014.48 1.92zM93.04.6v26.68h6.16V.6zm25.44-.6a14.312 14.312 0 00-10.44 3.92 14.9 14.9 0 00-4.12 10.12 13.624 13.624 0 004.16 9.92 14.683 14.683 0 0010.4 3.92 14.246 14.246 0 0010.32-3.92 13.794 13.794 0 004.16-10 13.881 13.881 0 00-4.16-10.08A14.255 14.255 0 00118.48 0zm-.04 5.68a8.557 8.557 0 015.88 2.28 8.409 8.409 0 012.32 6 7.99 7.99 0 01-2.32 5.96 8.078 8.078 0 01-5.92 2.28 7.847 7.847 0 01-5.72-2.2 7.96 7.96 0 01-2.44-6 8.173 8.173 0 012.36-6.04 8.188 8.188 0 015.84-2.28zm25.28 21.6V10l14.48 17.28h5.36V.6h-6.16v17.2L142.92.6h-5.36v26.68z" fill="#fff"/></svg>