<svg xmlns="http://www.w3.org/2000/svg" width="115.44" height="27.28" viewBox="0 0 115.44 27.28"><path d="M0 0l11.32 26.68h4.16L26.8 0h-6.64L13.4 17.08 6.64 0zm44.64 26.68h6.4L40.52 0h-5.64L24.12 26.68h6.4l2.04-5.04h10.08zm-10.28-9.76l3.32-8.96 3.28 8.96zM54.04 0v26.68h14.44v-5.2H60.2V0zm40.48 0h-6.16v15.64a6.294 6.294 0 01-1.4 4.48 4.92 4.92 0 01-3.72 1.4 4.92 4.92 0 01-3.72-1.4 6.294 6.294 0 01-1.4-4.48V0h-6.16v15.8c0 2.56.32 5.72 2.96 8.44 2.56 2.64 5.52 3.04 8.32 3.04s5.76-.4 8.32-3.04c2.64-2.72 2.96-5.88 2.96-8.44zm20.92 0h-15.08v26.68h15.08v-5.2h-8.92v-5.92H115v-5.2h-8.48V5.2h8.92z" fill="#fff"/></svg>