<svg xmlns="http://www.w3.org/2000/svg" width="617.422" height="148.461" viewBox="0 0 617.422 148.461">
  <path id="パス_2" data-name="パス 2" d="M7.52-14.78C17.744-7.751,27.69-2.343,30.033-1.491A75.937,75.937,0,0,0,57.936,3.2C73.059,3.2,87.756.852,99.9-11.289c10.224-10.224,13.419-22.791,13.419-35.784,0-9.8-1.917-17.679-9.159-25.347C96.7-80.514,87.33-83.709,78.384-86.478L67.1-89.886C58.362-92.442,55.806-95,54.741-96.276a9.5,9.5,0,0,1-1.917-6.39c0-3.195,1.491-5.538,3.621-7.668,3.621-3.408,8.52-4.26,12.141-4.26,4.9,0,13.206.852,24.282,9.585l14.7-28.755c-13.419-7.029-29.82-11.5-43.878-11.5-17.253,0-29.181,6.177-36.423,13.419-6.177,6.177-12.993,16.827-12.993,34.293,0,7.242.852,17.253,8.094,25.134,5.751,6.39,14.484,9.585,20.448,11.5L52.4-57.936c9.159,2.769,14.7,4.26,18.318,7.455a11.1,11.1,0,0,1,4.047,8.52,12.705,12.705,0,0,1-3.621,8.946c-2.343,2.556-6.816,4.9-14.271,4.9-12.78,0-24.708-7.029-32.589-14.484Zm212.935-95.98v-31.311H123.114v31.311H153.36V0h36.849V-110.76ZM387.234-70.929c0-18.957-7.242-38.979-22.365-53.25-14.484-13.845-34.932-21.087-56.019-21.087s-41.535,7.242-56.019,21.087c-15.123,14.271-22.365,34.293-22.365,53.25a73.72,73.72,0,0,0,22.365,53.037C267.315-4.047,287.763,3.2,308.85,3.2s41.535-7.242,56.019-21.087A73.72,73.72,0,0,0,387.234-70.929ZM308.85-109.482a42.528,42.528,0,0,1,28.542,11.289,38.337,38.337,0,0,1,11.5,27.264,39.122,39.122,0,0,1-11.5,27.264c-6.6,6.6-15.975,11.076-28.542,11.076-12.354,0-21.939-4.686-28.755-11.289A36.107,36.107,0,0,1,268.806-70.29c0-10.011,3.621-20.448,11.289-27.9C287.763-105.861,298.626-109.482,308.85-109.482Zm101.814-32.589V0h36.849V-54.528L482.871,0h45.8L484.149-58.149a39.8,39.8,0,0,0,19.6-9.8c7.029-6.816,11.289-17.466,11.289-29.607,0-11.289-4.047-23.643-12.141-31.95-10.437-10.863-24.069-12.567-34.719-12.567Zm36.849,28.542h7.029c8.094,0,14.271,2.13,17.679,5.538a16.753,16.753,0,0,1,4.9,11.928,17.688,17.688,0,0,1-4.686,11.928c-4.473,4.26-12.354,5.751-17.892,5.751h-7.029Zm177.429-28.542H544.215V0h80.727V-31.311H581.064v-24.5H622.6V-87.117H581.064V-110.76h43.878Z" transform="translate(-7.52 145.266)" fill="#fff" opacity="0.2"/>
</svg>
