<svg xmlns="http://www.w3.org/2000/svg" viewBox="0 0 123.29 38.23"><defs><style>.cls-1{fill:#fff}</style></defs><g id="レイヤー_2" data-name="レイヤー 2"><g id="レイヤー_1-2" data-name="レイヤー 1"><path d="M58 11.15c0 .36-.12.53-.44.53s-.46-.16-.44-.49c-.27-1.34-.67-2-1.21-2.14a1.59 1.59 0 00-1.24.56 5.17 5.17 0 00-1 1.18 3 3 0 00-.32 1c-.17.9-.51 1.35-1 1.35a2.79 2.79 0 01-1.35-.59 2.16 2.16 0 01-.92-1.36A6 6 0 0150 9.66v-.85a.7.7 0 00-.44-.65.26.26 0 01-.22-.27c0-.18.1-.26.31-.25a1.24 1.24 0 01.91.36 1.46 1.46 0 01.28 1v.8c0 .35-.05.61-.05.78a1.58 1.58 0 00.56 1.42 1.05 1.05 0 00.78.24c.23-.06.51-.42.82-1.09a6.54 6.54 0 011.21-1.77 2.62 2.62 0 011.82-1c1.02-.01 1.64.92 2.02 2.77zM70.66 11.83Q68 14.68 66 14.68a2.13 2.13 0 01-.88-.18 2.32 2.32 0 01-1.21-1.25 4.74 4.74 0 01-.34-2.25c0-.38.08-1 .19-2a15.89 15.89 0 00.16-2 1.32 1.32 0 00-.61-1.19.33.33 0 01-.14-.26.24.24 0 01.1-.21.33.33 0 01.26 0 1.46 1.46 0 011.28 1.51 12.94 12.94 0 01-.22 2 19.8 19.8 0 00-.27 2.15 4.23 4.23 0 00.27 1.85 1.49 1.49 0 001.41.95q1.68 0 4.24-2.36a.29.29 0 01.21-.09.24.24 0 01.27.27.29.29 0 01-.06.21zM82.82 10.7A4 4 0 0181 12.84a7.46 7.46 0 01-3.38 1c-.21 0-.31-.06-.31-.25s.09-.23.26-.25a6.44 6.44 0 002.93-1.11A3.06 3.06 0 0082 9.7a1.78 1.78 0 00-.59-1.36A2.18 2.18 0 0080 7.69a2.55 2.55 0 00-1.34.47 13.2 13.2 0 00-1.27 1c-.86.77-1.49 1.16-1.88 1.16a.92.92 0 01-.49-.16.26.26 0 01-.14-.22c0-.18.09-.26.28-.25s.49-.25 1.11-.77a13.79 13.79 0 011.64-1.26A4.06 4.06 0 0180 7a3.06 3.06 0 012 .84 2.58 2.58 0 01.81 2.84zm.25-3.65a.31.31 0 01-.29.33.31.31 0 01-.4-.27 2.72 2.72 0 00-.71-.61.19.19 0 01-.12-.18c0-.16.09-.22.26-.18.84.17 1.26.47 1.26.91zm1.07-.81a.45.45 0 010 .16.31.31 0 01-.29.33.31.31 0 01-.4-.24 2.15 2.15 0 00-.71-.64.19.19 0 01-.12-.18c0-.14.09-.21.25-.18a1.52 1.52 0 011.27.75zM93.48 11a4.4 4.4 0 01-.62 1.88A1.8 1.8 0 0191.33 14q-.89 0-1.62-1.2-.43.78-.84 1.41a.38.38 0 01-.38.23.37.37 0 01-.42-.42.47.47 0 01.11-.31A20.21 20.21 0 0090.77 9a10.41 10.41 0 01-1.36.18 1.44 1.44 0 01-1.38-1A.39.39 0 0188 8a.21.21 0 01.24-.23.29.29 0 01.27.18c.1.23.47.35 1.1.35.34 0 .82 0 1.42-.08a4.94 4.94 0 00.22-1.31c0-.45-.13-.73-.38-.83a.24.24 0 01-.2-.24c0-.17.09-.24.27-.24a.93.93 0 01.91.5 1.56 1.56 0 01.16.74 5 5 0 01-.21 1.3l.68-.07a.77.77 0 01.69.2 2.2 2.2 0 01.39 1.53 12 12 0 01-.08 1.2zm-.7-.17a5.09 5.09 0 00.07-.84 1.84 1.84 0 00-.33-1.32.22.22 0 00-.15 0l-.79.16A23.56 23.56 0 0190 12.22c.4.57.8.86 1.19.86s.78-.27 1.1-.83a3.65 3.65 0 00.49-1.4zm2.59 1.49c-.19 0-.28-.08-.28-.24s.09-.24.27-.26c.91-.07 1.36-.3 1.36-.69s-.6-1.27-1.81-2.25a.28.28 0 01-.13-.22.21.21 0 01.22-.22.53.53 0 01.17 0c1.66.95 2.49 1.83 2.49 2.65s-.75 1.25-2.29 1.25zM110 11.83q-2.62 2.85-4.62 2.85a2.18 2.18 0 01-.89-.18 2.35 2.35 0 01-1.21-1.25 4.87 4.87 0 01-.37-2.21c0-.38.09-1 .2-2a17.66 17.66 0 00.15-2 1.32 1.32 0 00-.61-1.19.33.33 0 01-.14-.26.25.25 0 01.11-.21.31.31 0 01.26 0 1.47 1.47 0 011.28 1.51 14.29 14.29 0 01-.22 2 15.42 15.42 0 00-.27 2.06 4 4 0 00.27 1.85 1.47 1.47 0 001.44.94q1.66 0 4.23-2.36a.29.29 0 01.21-.09.24.24 0 01.27.27.29.29 0 01-.09.27zM117 10.47a17.7 17.7 0 00-.91 3.95c0 .14-.09.22-.21.22a.43.43 0 01-.3-.17 4.62 4.62 0 01-.67-2.44 5.17 5.17 0 010-.57 12.42 12.42 0 01.3-2.25 12.44 12.44 0 00.3-2.24 2 2 0 00-.07-.49 2.63 2.63 0 01-.06-.39c0-.17.08-.25.23-.25a.25.25 0 01.18.08c.24.21.35.75.35 1.62a6.92 6.92 0 01-.18 1.59 11.05 11.05 0 00-.39 2.37 5.35 5.35 0 00.19 1.34 22.12 22.12 0 01.79-2.56.25.25 0 01.24-.18c.18 0 .26.09.26.25a.5.5 0 01-.05.12zm6.32-1.8a.42.42 0 01-.2.35c-.27.18-.76.48-1.47.89q0 .35-.06 1c0 .45-.09 1.11-.19 2A8.43 8.43 0 01123 14a.48.48 0 01.13.34.36.36 0 01-.41.4.42.42 0 01-.38-.21 7 7 0 00-1.23-.91 1.92 1.92 0 01-1.67 1 1.06 1.06 0 01-.87-.33.85.85 0 01-.36-.69c0-.45.33-.79 1-1a1.7 1.7 0 01.57-.09 3.07 3.07 0 01.89.15c0-.06.06-.53.12-1.4 0-.2 0-.5.06-.92a10.84 10.84 0 01-1.15.42h-.27a.84.84 0 01-.73-.4 1.2 1.2 0 01-.21-.7 2.14 2.14 0 01.44-1.2A8.76 8.76 0 01120.31 7a5.45 5.45 0 00-1.13.21 2.65 2.65 0 00-1.06.77.28.28 0 01-.22.1.2.2 0 01-.23-.23.32.32 0 01.06-.18 3.12 3.12 0 011.39-1.14 6 6 0 011.47-.35l.74-.13a3 3 0 00.68-.24.58.58 0 01.18 0 .37.37 0 01.41.41.35.35 0 01-.2.32l-.38.19a7.31 7.31 0 00-2.68 2.09 1.4 1.4 0 00-.33.84.58.58 0 00.09.35.4.4 0 00.48.09 10.65 10.65 0 001.31-.57 3.9 3.9 0 00-.15-1.53.23.23 0 010-.11.24.24 0 01.26-.27.48.48 0 01.36.22 1.82 1.82 0 01.28 1.16c.3-.17.59-.34.87-.53a.38.38 0 01.36-.24.37.37 0 01.42.44zm-2.92 4.61a1.62 1.62 0 00-.93-.08c-.41.1-.6.27-.57.49s.2.3.53.29a1.27 1.27 0 00.94-.7zM59.46 28.52c0 .12-.06.18-.19.18h-.35a.86.86 0 010 .21.39.39 0 01-.16.32.49.49 0 01-.4.09 5.15 5.15 0 01-2.7-1.32 5.35 5.35 0 01-1.43-2 4.41 4.41 0 01-1.84 2.46 5.65 5.65 0 01-2.91 1c-.15 0-.22 0-.22-.19s.06-.16.17-.18A5.84 5.84 0 0051.76 28a4.48 4.48 0 001.51-2h-4.16c-.17 0-.26-.08-.26-.25s.09-.25.26-.25h4.3a4.92 4.92 0 00.1-.94c0-.31.19-.47.47-.48h-4.9c-.16 0-.24-.09-.24-.26s.08-.25.24-.25h4.5v-1.09h-3.33c-.17 0-.25-.09-.25-.26a.22.22 0 01.25-.25h3.33v-1.09h-4c-.17 0-.26-.08-.26-.25s.09-.25.26-.25h5.28a.2.2 0 010-.15c.28-.62.5-1.14.66-1.54a.53.53 0 01.52-.35.56.56 0 01.5.29.66.66 0 01.06.27.5.5 0 01-.45.55q-.34.38-.9.93h2.71a.42.42 0 01.14-.33.44.44 0 01.33-.13.48.48 0 01.48.48.42.42 0 01-.48.48h-4V22h2.49a.39.39 0 01.43-.36.41.41 0 01.3.12.44.44 0 01-.3.75H54.4v1.13h4.16a.4.4 0 01.44-.44.44.44 0 01.46.46.45.45 0 01-.12.32.43.43 0 01-.31.14H54a.47.47 0 01.35.15.55.55 0 01.12.35.47.47 0 01-.12.32 3 3 0 01-.06.6h4a.41.41 0 01.46-.41.44.44 0 01.33.13.49.49 0 01.13.33.4.4 0 01-.46.45h-4.06A4.23 4.23 0 0056 27.36a6.16 6.16 0 003.25.95.17.17 0 01.21.21zm-6.34-8.86a.44.44 0 01-.4.48.51.51 0 01-.38-.09.45.45 0 01-.2-.33 9.66 9.66 0 00-.73-.93.25.25 0 01-.06-.16c0-.14.07-.2.23-.17a2.49 2.49 0 011 .4c.35.25.54.51.54.8zM74.71 19.9a.57.57 0 01-.14.69.57.57 0 01-.47.14l-.66.34h-.1c-.12 0-.18-.06-.18-.19a.36.36 0 010-.11l.3-.56h-7.54a1.7 1.7 0 01-.85 1.33.49.49 0 01-.59-.12.55.55 0 01-.16-.4.53.53 0 01.15-.37.54.54 0 01.38-.17 2.44 2.44 0 00.75-.91.2.2 0 01.19-.12q.19 0 .18.27h3.25v-1a.43.43 0 11.86 0v1h3.68a.58.58 0 01.42-.18.53.53 0 01.53.36zm.57 5.35a.17.17 0 01-.21.18l-.37-.05a.66.66 0 010 .23.41.41 0 01-.46.46.28.28 0 01-.13 0 7.42 7.42 0 01-2.57-1.19 7.55 7.55 0 01-1.93-2 11.36 11.36 0 01-2.26 2.22 12 12 0 01-2.74 1.59h-.1c-.13 0-.19-.07-.19-.2a.2.2 0 01.11-.17 17.39 17.39 0 002.6-2 12.62 12.62 0 002-2.2.48.48 0 01.43-.23.48.48 0 01.41.21.52.52 0 01.09.45 6.12 6.12 0 002.17 1.64 7.84 7.84 0 003 .81c.11.05.17.12.15.25zm-6.88-4.16a.75.75 0 010 .2.52.52 0 01-.42.52 8.89 8.89 0 01-2.66 2h-.11a.16.16 0 01-.18-.18.22.22 0 01.07-.17A17.81 17.81 0 0067.46 21a.53.53 0 01.45-.23.48.48 0 01.49.32zM72.52 29a.38.38 0 01-.44.43.37.37 0 01-.42-.41h-4v.14a.43.43 0 01-.42.43.42.42 0 01-.31-.13.41.41 0 01-.12-.3v-3.4a.37.37 0 01.43-.42.42.42 0 01.35.18h4.2a.38.38 0 01.34-.18c.29 0 .44.14.44.42zm-.86-.47V26h-4v2.52zm1.92-5.71a.45.45 0 01-.37.47.51.51 0 01-.61-.39 11.5 11.5 0 00-1.53-1.51.23.23 0 01-.08-.17c0-.12.06-.18.19-.18a2.94 2.94 0 011.42.63c.65.44.98.83.98 1.16zM85 19.28a.45.45 0 01-.14.32.45.45 0 01-.33.14h-1.42a16.57 16.57 0 01-.94 2.78H84a.41.41 0 01.35-.19.36.36 0 01.4.41v4.64a.38.38 0 01-.12.29.37.37 0 01-.29.12.38.38 0 01-.29-.12.42.42 0 01-.11-.29v-.24h-1.71v.63a.4.4 0 11-.79 0V24a10.52 10.52 0 01-1.14 1.66.18.18 0 01-.15.07c-.13 0-.2-.06-.2-.19a.44.44 0 010-.1 22.13 22.13 0 002.22-5.71h-1.52c-.17 0-.26-.08-.26-.25a.23.23 0 01.26-.26h3.44a.41.41 0 01.45-.41.45.45 0 01.33.14.44.44 0 01.13.33zm-1.11 7.37V23h-1.66v3.63zm7.43-3.81a.42.42 0 01-.47.46h-1.33v5.79a.38.38 0 01-.12.29.37.37 0 01-.29.12.36.36 0 01-.28-.12.38.38 0 01-.12-.29V23.3h-1.24v.41q0 4.42-2.92 5.75h-.08c-.12 0-.18-.06-.18-.19a.19.19 0 01.07-.16 5.41 5.41 0 001.73-2.2 8.47 8.47 0 00.55-3.31v-.3h-1.26a.23.23 0 01-.25-.26.22.22 0 01.25-.25h1.26v-3.05h-.91a.22.22 0 01-.25-.25.23.23 0 01.25-.26h4.38a.41.41 0 01.46-.41.43.43 0 01.32.14.42.42 0 01.14.32.45.45 0 01-.14.33.48.48 0 01-.33.13h-1v3.05h.88a.41.41 0 01.46-.41.43.43 0 01.32.14.45.45 0 01.1.32zm-2.61-.05v-3.05h-1.24v3.05zM106.33 22.68c0 .31-.16.47-.49.47H103c-.67 0-1-.37-1-1.12v-1.62h-2a.48.48 0 01.2.4.47.47 0 01-.26.44A4.48 4.48 0 0198.55 23a4.12 4.12 0 01-2.06.8c-.16 0-.25 0-.25-.18a.19.19 0 01.15-.2 4.11 4.11 0 001.74-1 4.58 4.58 0 001.14-1.74.6.6 0 01.2-.27h-2a1.77 1.77 0 01-.56 1.32.5.5 0 01-.35.14.47.47 0 01-.35-.15.46.46 0 01-.15-.34.5.5 0 01.47-.52 2.7 2.7 0 00.56-1 .19.19 0 01.19-.16c.15 0 .21.08.19.25h3.45v-1.19a.38.38 0 01.13-.3.37.37 0 01.29-.13.42.42 0 01.32.13.38.38 0 01.13.3v1.16H105a.58.58 0 01.45-.19.56.56 0 01.53.33.75.75 0 010 .26.54.54 0 01-.18.41.56.56 0 01-.4.17.51.51 0 01-.17 0l-.64.36a.17.17 0 01-.11 0c-.12 0-.18-.06-.18-.19a.19.19 0 010-.12l.31-.55h-1.87v1.64c0 .2.08.29.24.29h2.26v-.47c0-.13.07-.19.2-.19s.2.06.2.19v.36h.15a.44.44 0 01.32.13.42.42 0 01.22.33zm.4 5.87c0 .32-.17.49-.52.5h-2.53a1.35 1.35 0 01-1-.29 1.38 1.38 0 01-.29-1c0-.64 0-1.59.12-2.83h-2a5.38 5.38 0 01-4.19 4.47c-.17 0-.25 0-.25-.18a.2.2 0 01.14-.19A5.54 5.54 0 0099.69 25h-3.12c-.16 0-.24-.09-.24-.26a.22.22 0 01.24-.25h3.23a5.75 5.75 0 00.12-1.1.54.54 0 01.16-.35.5.5 0 01.37-.15.46.46 0 01.5.41.48.48 0 01-.19.53 5.3 5.3 0 01-.07.66h2a.43.43 0 01.35-.16.44.44 0 01.29.14.42.42 0 01.11.29l-.13 3.07c0 .19 0 .32.07.37a.54.54 0 00.35.08h2v-.56a.18.18 0 01.21-.2.18.18 0 01.2.2v.42a.58.58 0 01.19 0 .47.47 0 01.34.14.45.45 0 01.06.27zM116.31 25a.37.37 0 01-.42.41.38.38 0 01-.39-.3h-2.17a6 6 0 01-1.33 4.21.23.23 0 01-.16.08c-.14 0-.21-.06-.21-.19a.16.16 0 010-.08 7.35 7.35 0 00.71-2 14.19 14.19 0 00.18-2.52v-2.85c0-.28.15-.43.46-.43a.4.4 0 01.38.24h2.23a.41.41 0 01.33-.15.36.36 0 01.41.4zm.42-5.68a.46.46 0 01-.14.34.48.48 0 01-.33.13h-4.19c-.18 0-.27-.08-.27-.26a.24.24 0 01.27-.27h3.76a.46.46 0 01.77-.26.45.45 0 01.13.35zm-1.24 5.28v-2.52h-2.13v2.55zm7.1-2a.48.48 0 01-.48.48h-1.36v6.08a.41.41 0 01-.13.29.41.41 0 01-.6 0 .37.37 0 01-.13-.29v-6.07h-1.7a8.47 8.47 0 01-.76 3.61 6 6 0 01-2.37 2.3.19.19 0 01-.12 0c-.12 0-.18-.06-.18-.19s0-.12.06-.15a6.87 6.87 0 002-2.83 14.86 14.86 0 00.46-4.38v-1.4a.43.43 0 01.15-.33.49.49 0 01.33-.13.42.42 0 01.41.27q1.33-.33 2.64-.75a.42.42 0 01.44-.25.48.48 0 01.49.49.45.45 0 01-.13.34.68.68 0 01-.38.18c-1 .15-2 .28-3.06.38v2.33h3.43a.42.42 0 01.15-.32.48.48 0 01.33-.12.42.42 0 01.34.14.45.45 0 01.17.33zM37.28 10.86l.18.3a.79.79 0 01-.25.41s0 .07-.06.11a.37.37 0 01-.16.17c-.07 0-.1.14-.16.17a.38.38 0 00-.18.15.3.3 0 01-.13.09 1.71 1.71 0 01-.59.24.36.36 0 00-.25.13 1.4 1.4 0 01-.32.22c-.18.08-.36.16-.54.22l-.36.09a1.29 1.29 0 00-.28.08 1.51 1.51 0 01-.72.15h-.29a.3.3 0 01-.27-.39.69.69 0 01.37-.49.32.32 0 00.13-.1 1.66 1.66 0 01.53-.38c.1-.06.22-.07.29-.18s.2-.1.3-.16.39-.2.59-.3.43-.15.62-.29a3.24 3.24 0 011.06-.22H37zM5.28 10.79l-.41-.07a2.38 2.38 0 01-1-.5A10.92 10.92 0 013 9.44a2.07 2.07 0 01-.51-.7 1.82 1.82 0 01-.11-.38.36.36 0 01.07-.22.49.49 0 01.4-.26 1.46 1.46 0 01.73.12A3.49 3.49 0 015 9a2.89 2.89 0 00.25.24 1.77 1.77 0 01.5.83.41.41 0 00.11.24.23.23 0 01-.12.36 3 3 0 01-.46.12zM17.85 4h-.06a.36.36 0 01-.43-.21 2.82 2.82 0 01-.22-.42A5.94 5.94 0 0116.78 2v-.62a2 2 0 010-.24.59.59 0 010-.13 5.67 5.67 0 01.05-.58.74.74 0 01.22-.38.35.35 0 01.42 0 .83.83 0 01.14.22 1.8 1.8 0 01.29.79 1 1 0 00.07.2.63.63 0 01.05.31.41.41 0 000 .15 1.88 1.88 0 01.08.52v.95a2.74 2.74 0 01-.25.81zM1 24H.77c-.12 0-.24 0-.3-.13H.4a.36.36 0 01-.21-.19.35.35 0 010-.42.8.8 0 01.47-.39c.13 0 .24-.11.37-.14s.24-.08.36-.09.51-.06.76-.09h.53a.61.61 0 01.19 0s.13 0 .16.08a.38.38 0 00.21.14c.2.08.22.26.26.44a.19.19 0 010 .1.87.87 0 01-.33.33 2.92 2.92 0 01-.49.19A6.91 6.91 0 011 24zM37.41 18.68a1.4 1.4 0 00-.1.16.25.25 0 01-.18.15.6.6 0 00-.16.08 2 2 0 01-.83.25 3.31 3.31 0 01-.77 0 1.11 1.11 0 01-.43-.19.35.35 0 010-.57 1.55 1.55 0 01.44-.32 5.32 5.32 0 011.2-.41 6.77 6.77 0 011.27-.14h.11c.23 0 .29.07.35.29a.24.24 0 010 .22 1.34 1.34 0 01-.2.21 2.07 2.07 0 01-.7.27zM32.12 5.19a2.24 2.24 0 01-.45.72 1.61 1.61 0 00-.24.28 1.63 1.63 0 01-.38.36 3.07 3.07 0 01-.35.24 1.2 1.2 0 01-.81.17h-.13a.22.22 0 01-.26-.17.47.47 0 010-.43c.05-.11.09-.23.15-.34s.06-.15.15-.17l.06-.06a1.4 1.4 0 01.55-.47.38.38 0 00.12-.1 1.82 1.82 0 011.08-.46A.39.39 0 0132 5zM.51 16.25a.6.6 0 01-.51-.44.43.43 0 01.19-.26.43.43 0 01.21-.09h.22a.73.73 0 00.38-.1.53.53 0 01.25-.08 2.82 2.82 0 011.26 0 1.09 1.09 0 01.23.09.55.55 0 01.27.34.09.09 0 010 .07 1.58 1.58 0 01-.29.56 1.13 1.13 0 01-.48.26h-.26c-.21 0-.43.05-.64.06a1.94 1.94 0 01-.34 0 .47.47 0 01-.49-.41zM21.74 35a.9.9 0 01.13-.56c.05-.07 0-.14 0-.21a.45.45 0 01.23-.39c.14-.08.19-.06.33 0a1 1 0 01.34.52 9.9 9.9 0 01.28 1.07 1.3 1.3 0 010 .65.31.31 0 000 .19.37.37 0 01-.08.32l-.18.29a.37.37 0 01-.4.14.53.53 0 01-.14-.12 2.64 2.64 0 01-.33-.75 6.11 6.11 0 01-.18-.85c.03-.04.01-.15 0-.3zM35.92 31.11c0 .09-.1.18-.06.3s-.15.35-.36.36a1.06 1.06 0 01-.5-.06l-.46-.2a.66.66 0 01-.17-.12.54.54 0 01-.24-.63l-.49-.38a1.31 1.31 0 01-.34-.48s0-.08.05-.11c.14-.25.24-.31.52-.25a2.06 2.06 0 01.35.12 5.32 5.32 0 011.25.8 1.21 1.21 0 01.45.65zM10.43 5.59a.7.7 0 01-.43 0 .46.46 0 00-.26 0 .45.45 0 01-.38-.14 2.26 2.26 0 01-.6-.9.41.41 0 010-.29.55.55 0 000-.38.6.6 0 01.29-.59.33.33 0 01.33 0 1.78 1.78 0 01.26.22c.14.13.27.28.41.42a3.2 3.2 0 01.53.82.69.69 0 010 .61zM6.49 35.76c-.19 0-.22 0-.27-.17a.55.55 0 010-.5l.34-.6.33-.61a3.74 3.74 0 01.53-.66c.12-.13.29-.1.45-.07a.09.09 0 01.05 0 .52.52 0 01.16.46 3.08 3.08 0 01-.51 1.26.62.62 0 00-.1.16 1 1 0 01-.09.13 2.52 2.52 0 01-.79.54zM15.2 36.53a.81.81 0 010 .22q-.11.55-.24 1.11a.91.91 0 01-.07.14.34.34 0 01-.4.23.26.26 0 01-.18-.09l-.22-.23a1.26 1.26 0 01-.08-1c0-.21.1-.37.15-.55a.32.32 0 01.26-.27s.06 0 .08-.06l.12-.18a.27.27 0 01.22-.13.21.21 0 01.21.12 1.19 1.19 0 01.15.69zM36.26 25.86a2.29 2.29 0 01-1-.25 1.74 1.74 0 01-.47-.38.37.37 0 010-.56.18.18 0 01.12-.05 3.75 3.75 0 01.58 0 3.34 3.34 0 011 .32.75.75 0 01.37.33.34.34 0 01-.21.51 1 1 0 01-.39.08zM24.13 2.58l.18-.27h.22l.33.51a.32.32 0 01.05.23 1.52 1.52 0 01-.23.5 1.3 1.3 0 01-.18.23l-.26.26h-.54a.31.31 0 01-.12 0L23.56 4c-.14 0-.17-.15-.21-.26a.42.42 0 010-.31 1.84 1.84 0 00.09-.25 1.66 1.66 0 01.26-.39.69.69 0 01.43-.21zM28.87 34.37c-.3.09-.41.09-.61-.22a3.32 3.32 0 01-.5-1.08 5.17 5.17 0 01-.07-.55.52.52 0 01.12-.34.32.32 0 01.37 0 .93.93 0 01.16.18 2.33 2.33 0 01.2.34 7.59 7.59 0 01.35.77A3.45 3.45 0 0129 34a.53.53 0 01-.13.37zM2.12 29.39a1.11 1.11 0 01.37-.46c.13-.08.25-.19.37-.28a.94.94 0 01.63-.18c.13 0 .27.19.23.32a1 1 0 01-.39.52 1.59 1.59 0 00-.21.15 1.34 1.34 0 01-.79.26.14.14 0 01-.14-.11zM9.49 14.07a.21.21 0 01-.12 0c-.12 0-.27-.21-.31-.31a1.55 1.55 0 01-.06-.3A6.54 6.54 0 019 12a.22.22 0 01.21-.1c.1 0 .31 0 .37.19a.64.64 0 01.06.23 5.06 5.06 0 01-.15 1.75zM13.26 12.24h-.12a.44.44 0 00-.22 0 4.24 4.24 0 00-2 .71h.18a9.57 9.57 0 011.38.35.81.81 0 01.33.45.21.21 0 01-.09.21 4.15 4.15 0 01-1.19.49c-.19 0-.55-.14-.56-.27a.11.11 0 010-.08c.1-.16 1.23-.33 1.25-.45h-.13c-.39-.1-1.32-.18-1.61-.49a.43.43 0 01-.11-.26.48.48 0 01.1-.4 4.87 4.87 0 012.36-.79.9.9 0 01.74.33.15.15 0 010 .07c0 .03-.18.13-.31.13zM15.8 12.19v.69a12.55 12.55 0 01-.06 1.56.16.16 0 01-.14.07c-.12 0-.42-.16-.44-.31s0-.26 0-.44l-.59.11a1.21 1.21 0 000 .19v.12c0 .04 0 .22-.17.22a.53.53 0 01-.4-.2.67.67 0 01-.07-.27A6.28 6.28 0 0114 12a.15.15 0 01.13-.06.46.46 0 01.42.32v1.06c.19 0 .59-.1.59-.1a.85.85 0 000-.15v-.55a5.6 5.6 0 01.06-1c0-.07.11-.08.15-.08s.43.13.46.32 0 .24-.01.43zM17.34 14.07a.21.21 0 01-.11 0c-.13 0-.27-.21-.32-.31a1.18 1.18 0 01-.07-.34 7.36 7.36 0 010-1.51c0-.09.16-.1.21-.1a.42.42 0 01.38.19.64.64 0 01.06.23 4.8 4.8 0 01-.15 1.84zM20.53 11.49c-.09.15-.52.76-.93 1.36a10.67 10.67 0 00-.72 1.15c.2 0 .4-.08.61-.11h.07a.51.51 0 01.4.32c0 .16-.21.17-.32.19l-.37.06a5.78 5.78 0 00-.69.13c-.14 0-.37-.32-.39-.47v-.07a10.41 10.41 0 01.77-1.31c.21-.34.43-.68.65-1a3.44 3.44 0 00-.79.16h-.07c-.1 0-.41-.15-.43-.3s1.54-.52 1.74-.51.53.11.55.26a.15.15 0 01-.08.14zM21.82 14.21h-.21A.82.82 0 0121 14a1.51 1.51 0 01-.22-.66A2.44 2.44 0 0121 12a.16.16 0 01.14-.08c.12 0 .42.13.43.27a2.77 2.77 0 00-.17 1.28 1.3 1.3 0 000 .26v.07c.46 0 1.07-.94 1.08-1.77 0-.13.24-.21.38-.21s.25.15.27.27a2.27 2.27 0 01-1.31 2.12zM26.64 12.18l-.9.53c-.35.21-.71.44-.95.61a3.41 3.41 0 01.94.4.26.26 0 01.11.2c0 .13-.07.18-.18.18a2 2 0 01-.39-.06 2.84 2.84 0 01-.43-.21c-.14-.07-.37-.22-.37-.22v.32c0 .06-.09.14-.15.14a.49.49 0 01-.37-.21.71.71 0 010-.16 8.68 8.68 0 010-1.69.2.2 0 01.21-.14c.13 0 .33.09.35.24s0 .48 0 .75a6.12 6.12 0 011.88-1 .38.38 0 01.34.24.16.16 0 01-.09.08zM29.33 14.47a.43.43 0 01-.32.16.21.21 0 01-.17-.07 9.33 9.33 0 01-.29-1.06 10.34 10.34 0 01-1.1.2 3.28 3.28 0 00-.2.52c-.05.11-.07.16-.22.16s-.29-.05-.31-.21a8.12 8.12 0 011.17-2.49 1 1 0 01.45-.12.27.27 0 01.25.12 13 13 0 01.76 2.6.33.33 0 01-.02.19zm-1.12-2.32a7.18 7.18 0 00-.53 1 4.56 4.56 0 01.73-.18 8.65 8.65 0 00-.2-.82zM15.16 18.14a.19.19 0 01-.12 0 .68.68 0 00-.22 0 4.35 4.35 0 00-2 .7H13a9.24 9.24 0 011.38.35.77.77 0 01.33.45.19.19 0 01-.09.2 3.91 3.91 0 01-1.19.5c-.19 0-.55-.14-.56-.27a.11.11 0 010-.08c.1-.16 1.23-.34 1.25-.45h-.13c-.39-.1-1.32-.19-1.61-.49a.46.46 0 01-.11-.27.5.5 0 01.1-.39 4.76 4.76 0 012.36-.79.92.92 0 01.74.32.19.19 0 010 .08c0 .05-.18.14-.31.14zM17.7 18.1v.69a10.94 10.94 0 01-.06 1.56.16.16 0 01-.14.07c-.12 0-.42-.16-.44-.32s0-.26 0-.43l-.59.11a1.28 1.28 0 000 .19v.11c0 .03 0 .23-.16.23a.54.54 0 01-.41-.2.67.67 0 01-.07-.27 6.61 6.61 0 01.07-2 .16.16 0 01.14-.07.48.48 0 01.41.32v1.07c.19-.05.59-.1.59-.1A1 1 0 0017 19v-.56a5.47 5.47 0 01.06-1 .17.17 0 01.15-.09c.14 0 .44.14.46.32a4 4 0 01.03.43zM19.25 20a.21.21 0 01-.12 0c-.13 0-.27-.21-.32-.31a1.18 1.18 0 01-.07-.35 7.35 7.35 0 010-1.51c0-.08.16-.09.22-.09s.31 0 .37.18a.77.77 0 01.06.24 5.1 5.1 0 01-.14 1.84zM22.27 18.1v.69a10.94 10.94 0 01-.06 1.56.16.16 0 01-.14.07c-.11 0-.42-.16-.44-.32s0-.26 0-.43l-.6.11A1.37 1.37 0 0021 20v.11c0 .03 0 .23-.16.23a.54.54 0 01-.41-.2.9.9 0 01-.06-.27 6.33 6.33 0 01.06-2 .16.16 0 01.14-.07.5.5 0 01.42.32v1.07a5.88 5.88 0 01.59-.1 1 1 0 000-.15v-.56a6.64 6.64 0 01.06-1 .17.17 0 01.15-.09c.14 0 .44.14.46.32a4 4 0 01.02.49zM25.37 19.54a1.93 1.93 0 01-1.45.91.81.81 0 01-.7-.34 1.09 1.09 0 01-.22-.51 1.87 1.87 0 011.22-1.89 1.08 1.08 0 01.32 0 .42.42 0 01.35-.13.75.75 0 01.36.11.89.89 0 01.35.66 2.11 2.11 0 01-.23 1.19zM24.86 18h-.15c-.1.08-.23.14-.37.26a1.92 1.92 0 00-.7 1.5c0 .11.05.26.21.26.44 0 .79-.44.95-.75a1.7 1.7 0 00.2-1c0-.06 0-.2-.14-.27zM6.41 24.06l.06-.06a.27.27 0 01.23-.16l.55-.09a7 7 0 01.92-.09c1-.07 5.67 0 6.63-.06h1.45l2.31-.08c.81 0 7.89-.05 8.7 0l1.58.06c.44 0 .88 0 1.31.06a9.85 9.85 0 011.08.1h.36a.28.28 0 00.05.08.23.23 0 010 .29.18.18 0 000 .09 1.09 1.09 0 01-.22.49c-.09.15-.2.3-.29.46a2.14 2.14 0 01-.3.44 1.81 1.81 0 00-.18.27.49.49 0 00.1.22l.57.89a4.63 4.63 0 01.49.9 2 2 0 00.11.2c-.07.16-.06.35-.21.5a2.72 2.72 0 01-.31 0 .72.72 0 00-.25 0 1.39 1.39 0 01-.4.06H6.66a.28.28 0 01-.28-.37.78.78 0 010-.14c.05-.1.11-.2.16-.31s.13-.17.15-.29a.67.67 0 01.14-.28l.13-.2a1.69 1.69 0 00.17-.36 1.71 1.71 0 01.14-.27l.21-.36c-.28-.65-.75-1.27-1.07-1.99z"/><path class="cls-1" d="M9.77 26c.15.06.32.17.34.33a.22.22 0 010 .08c-.06.28-.46.48-.78.48-.11 0-.25-.19-.26-.26a.22.22 0 010-.08 5.68 5.68 0 01.12-1.66.84.84 0 01.44-.08 2.12 2.12 0 01.82.14.61.61 0 01.27.37c-.02.33-.72.61-.95.68zm-.37.18a2.77 2.77 0 000 .41c.11 0 .28-.12.26-.22s-.14-.15-.26-.17zm.34-1.07a1.23 1.23 0 00-.27 0 6.34 6.34 0 00-.05.67c.14 0 .84-.24.81-.56 0 .01-.14-.09-.49-.09zM12.2 25.1l-.39.08h-.15c0 .18-.06.67-.08.89A1.24 1.24 0 0112 26c.2 0 .39.12.4.19s-.14.16-.23.16a3.4 3.4 0 00-.51.12.15.15 0 010 .07v.15a.23.23 0 010 .07h.16a1.29 1.29 0 01.24-.05c.11 0 .37.09.38.15s-.46.24-.56.27a1 1 0 01-.24 0 .26.26 0 01-.2-.09 1 1 0 01-.16-.49 4.82 4.82 0 010-.93c0-.27 0-.48.06-.5a.5.5 0 010-.13.08.08 0 01.08-.11 4.25 4.25 0 00.44-.09 1.64 1.64 0 01.34 0c.07 0 .37.08.38.21s-.22.07-.38.1zM14.57 26.77a.33.33 0 01-.24-.1 2.3 2.3 0 01-.14-.42 6.73 6.73 0 01-.78.15c-.09.18-.15.38-.23.58a.29.29 0 01-.06.1c0 .05-.13.08-.18.08s-.12 0-.12-.09a8.55 8.55 0 01.83-2.07.51.51 0 01.26-.07.28.28 0 01.19.07 5.46 5.46 0 01.61 1.6c.02.11-.03.17-.14.17zm-.71-1.47c0 .09-.19.41-.31.72a2.19 2.19 0 01.54-.13c-.09-.16-.18-.49-.23-.59zM16 26.79h-.14a.54.54 0 01-.41-.15 1 1 0 01-.14-.42 1.54 1.54 0 01.14-.88.1.1 0 01.09-.05c.08 0 .26.09.27.17a1.74 1.74 0 00-.1.82.7.7 0 000 .16v.05c.28 0 .68-.8.69-1.34 0-.08.15-.14.24-.14s.16.09.17.18c.08.53-.38 1.52-.81 1.6zM18.82 24.85h-.11l-.41.15h-.09c0 .07-.06 1.6-.07 1.82s0 .35 0 .37a.12.12 0 01-.12.07.27.27 0 01-.27-.21v-1.13-.85a1 1 0 01-.34.06c-.11 0-.3-.09-.31-.2s.19-.1.27-.11l.42-.11a4.2 4.2 0 01.85-.08.18.18 0 01.19.14.09.09 0 01-.01.08zM20.07 25.9V27a.09.09 0 01-.07 0 .53.53 0 01-.24-.11.16.16 0 010-.11v-1a4.92 4.92 0 01-.55-.77c0-.09.1-.15.14-.11a5.84 5.84 0 01.53.62v-.07l.13-.22a2.49 2.49 0 01.28-.38.23.23 0 01.17-.07.17.17 0 01.17.12 4.55 4.55 0 01-.56 1zM23.08 26.34a2.08 2.08 0 01-.63.45.45.45 0 01-.27-.12.32.32 0 010-.11 7.68 7.68 0 010-1.44.12.12 0 01.13-.09.23.23 0 01.2.12.11.11 0 010 .08v1.11l.36-.19h.08c.07 0 .17.05.18.13a.11.11 0 01-.05.06zM25.14 26.77a.35.35 0 01-.24-.1 3.49 3.49 0 01-.13-.42 6.73 6.73 0 01-.78.15c-.09.18-.16.38-.24.58a.89.89 0 01-.05.1.26.26 0 01-.19.08.1.1 0 01-.11-.09 8.16 8.16 0 01.83-2.07.48.48 0 01.26-.07.28.28 0 01.19.07 5.75 5.75 0 01.61 1.6c.01.11-.03.17-.15.17zm-.7-1.47c-.05.09-.19.41-.31.72a2.25 2.25 0 01.53-.13 6.28 6.28 0 00-.22-.59zM26.71 26.23c.14.08.3.2.31.29 0 .31-.44.51-.74.51-.1 0-.24-.16-.26-.23a1.14 1.14 0 01-.06-.29 5.09 5.09 0 010-1.42 2.14 2.14 0 01.82-.11 1.63 1.63 0 01.61.08.71.71 0 01.35.42c.01.18-.46.58-1.03.75zm.21-.94a4.85 4.85 0 00-.64.05V26c.41-.07 1-.49 1-.64s-.16-.07-.36-.07zm-.63 1.08a2.15 2.15 0 000 .23.47.47 0 010 .12c.12 0 .3-.1.28-.2a.46.46 0 00-.28-.15zM28.64 26.59a.57.57 0 01-.55-.5c0-.3.17-.82.61-.82a.3.3 0 01.21.06c.13 0 .32.1.36.43a.53.53 0 010 .13.74.74 0 01-.63.7zm.27-.95h-.07a.54.54 0 00-.43.51c0 .05 0 .08.08.08a.47.47 0 00.31-.23.84.84 0 00.11-.4z"/></g></g></svg>